<svg version="1.1" viewBox="0.0 0.0 192.0 240.0" fill="none" stroke="none" stroke-linecap="square" stroke-miterlimit="10" xmlns:xlink="http://www.w3.org/1999/xlink" xmlns="http://www.w3.org/2000/svg"><clipPath id="p.0"><path d="m0 0l192.0 0l0 240.0l-192.0 0l0 -240.0z" clip-rule="nonzero"/></clipPath><g clip-path="url(#p.0)"><path fill="#000000" fill-opacity="0.0" d="m0 0l192.0 0l0 240.0l-192.0 0z" fill-rule="evenodd"/><g filter="url(#shadowFilter-p.1)"><use xlink:href="#p.1" transform="matrix(1.0 0.0 0.0 1.0 0.0 2.0)"/></g><defs><filter id="shadowFilter-p.1" filterUnits="userSpaceOnUse"><feGaussianBlur in="SourceAlpha" stdDeviation="2.0" result="blur"/><feComponentTransfer in="blur" color-interpolation-filters="sRGB"><feFuncR type="linear" slope="0" intercept="0.0"/><feFuncG type="linear" slope="0" intercept="0.0"/><feFuncB type="linear" slope="0" intercept="0.0"/><feFuncA type="linear" slope="0.5" intercept="0"/></feComponentTransfer></filter></defs><g id="p.1"><path fill="#d9d9d9" d="m8.0 8.0l178.55118 0l0 226.55118l-178.55118 0z" fill-rule="evenodd"/><path stroke="#000000" stroke-width="1.0" stroke-linejoin="round" stroke-linecap="butt" d="m8.0 8.0l178.55118 0l0 226.55118l-178.55118 0z" fill-rule="evenodd"/></g><path fill="#ead1dc" d="m24.0 24.0l144.0 0l0 192.0l-144.0 0z" fill-rule="evenodd"/><path stroke="#000000" stroke-width="1.0" stroke-linejoin="round" stroke-linecap="butt" d="m24.0 24.0l144.0 0l0 192.0l-144.0 0z" fill-rule="evenodd"/><path fill="#000000" fill-opacity="0.0" d="m24.0 24.0l84.661415 0l0 14.551182l-84.661415 0z" fill-rule="evenodd"/><path fill="#000000" d="m29.03125 35.21125q0 0.21875 0.140625 0.390625q0.140625 0.15625 0.421875 0.15625q0.28125 0 0.421875 -0.15625q0.15625 -0.15625 0.15625 -0.390625q0 -0.234375 -0.15625 -0.390625q-0.140625 -0.171875 -0.421875 -0.171875q-0.28125 0 -0.421875 0.171875q-0.140625 0.15625 -0.140625 0.390625zm1.515625 0q0 0.21875 0.140625 0.390625q0.140625 0.15625 0.421875 0.15625q0.28125 0 0.421875 -0.15625q0.15625 -0.15625 0.15625 -0.390625q0 -0.234375 -0.15625 -0.390625q-0.140625 -0.171875 -0.421875 -0.171875q-0.28125 0 -0.421875 0.171875q-0.140625 0.15625 -0.140625 0.390625zm1.46875 0q0 0.21875 0.140625 0.390625q0.140625 0.15625 0.421875 0.15625q0.28125 0 0.421875 -0.15625q0.15625 -0.15625 0.15625 -0.390625q0 -0.234375 -0.15625 -0.390625q-0.140625 -0.171875 -0.421875 -0.171875q-0.28125 0 -0.421875 0.171875q-0.140625 0.15625 -0.140625 0.390625zm5.0351562 -1.703125l0 -1.34375q0 -0.53125 -0.125 -0.953125q-0.125 -0.421875 -0.359375 -0.71875q-0.234375 -0.28125 -0.578125 -0.421875q-0.34375 -0.15625 -0.78125 -0.15625q-0.4375 0 -0.78125 0.15625q-0.328125 0.140625 -0.5625 0.421875q-0.25 0.296875 -0.375 0.71875q-0.125 0.421875 -0.125 0.953125l0 1.34375q0 0.53125 0.125 0.953125q0.125 0.421875 0.375 0.703125q0.234375 0.296875 0.578125 0.453125q0.34375 0.140625 0.78125 0.140625q0.4375 0 0.765625 -0.140625q0.34375 -0.15625 0.578125 -0.453125q0.234375 -0.28125 0.359375 -0.703125q0.125 -0.421875 0.125 -0.953125zm-2.953125 -0.15625q0 -0.09375 0 -0.1875q0 -0.109375 0 -0.203125l0 -0.953125q0 -0.390625 0.078125 -0.6875q0.078125 -0.3125 0.25 -0.5q0.125 -0.15625 0.328125 -0.234375q0.203125 -0.078125 0.453125 -0.078125q0.25 0 0.4375 0.078125q0.203125 0.0625 0.34375 0.21875q0.125 0.140625 0.203125 0.359375q0.09375 0.21875 0.125 0.5l-2.21875 1.6875zm2.234375 0.296875q0 0.421875 -0.09375 0.734375q-0.078125 0.3125 -0.265625 0.5q-0.125 0.140625 -0.328125 0.21875q-0.1875 0.0625 -0.421875 0.0625q-0.234375 0 -0.421875 -0.0625q-0.1875 -0.0625 -0.328125 -0.203125q-0.140625 -0.140625 -0.234375 -0.359375q-0.09375 -0.21875 -0.125 -0.5l2.21875 -1.6875q0 0.109375 0 0.28125q0 0.15625 0 0.21875l0 0.796875zm5.5195312 -0.140625l0 -1.34375q0 -0.53125 -0.125 -0.953125q-0.125 -0.421875 -0.359375 -0.71875q-0.234375 -0.28125 -0.578125 -0.421875q-0.34375 -0.15625 -0.78125 -0.15625q-0.4375 0 -0.78125 0.15625q-0.328125 0.140625 -0.5625 0.421875q-0.25 0.296875 -0.375 0.71875q-0.125 0.421875 -0.125 0.953125l0 1.34375q0 0.53125 0.125 0.953125q0.125 0.421875 0.375 0.703125q0.234375 0.296875 0.578125 0.453125q0.34375 0.140625 0.78125 0.140625q0.4375 0 0.765625 -0.140625q0.34375 -0.15625 0.578125 -0.453125q0.234375 -0.28125 0.359375 -0.703125q0.125 -0.421875 0.125 -0.953125zm-2.953125 -0.15625q0 -0.09375 0 -0.1875q0 -0.109375 0 -0.203125l0 -0.953125q0 -0.390625 0.078125 -0.6875q0.078125 -0.3125 0.25 -0.5q0.125 -0.15625 0.328125 -0.234375q0.203125 -0.078125 0.453125 -0.078125q0.25 0 0.4375 0.078125q0.203125 0.0625 0.34375 0.21875q0.125 0.140625 0.203125 0.359375q0.09375 0.21875 0.125 0.5l-2.21875 1.6875zm2.234375 0.296875q0 0.421875 -0.09375 0.734375q-0.078125 0.3125 -0.265625 0.5q-0.125 0.140625 -0.328125 0.21875q-0.1875 0.0625 -0.421875 0.0625q-0.234375 0 -0.421875 -0.0625q-0.1875 -0.0625 -0.328125 -0.203125q-0.140625 -0.140625 -0.234375 -0.359375q-0.09375 -0.21875 -0.125 -0.5l2.21875 -1.6875q0 0.109375 0 0.28125q0 0.15625 0 0.21875l0 0.796875zm5.5195312 -0.140625l0 -1.34375q0 -0.53125 -0.125 -0.953125q-0.125 -0.421875 -0.359375 -0.71875q-0.234375 -0.28125 -0.578125 -0.421875q-0.34375 -0.15625 -0.78125 -0.15625q-0.4375 0 -0.78125 0.15625q-0.328125 0.140625 -0.5625 0.421875q-0.25 0.296875 -0.375 0.71875q-0.125 0.421875 -0.125 0.953125l0 1.34375q0 0.53125 0.125 0.953125q0.125 0.421875 0.375 0.703125q0.234375 0.296875 0.578125 0.453125q0.34375 0.140625 0.78125 0.140625q0.4375 0 0.765625 -0.140625q0.34375 -0.15625 0.578125 -0.453125q0.234375 -0.28125 0.359375 -0.703125q0.125 -0.421875 0.125 -0.953125zm-2.953125 -0.15625q0 -0.09375 0 -0.1875q0 -0.109375 0 -0.203125l0 -0.953125q0 -0.390625 0.078125 -0.6875q0.078125 -0.3125 0.25 -0.5q0.125 -0.15625 0.328125 -0.234375q0.203125 -0.078125 0.453125 -0.078125q0.25 0 0.4375 0.078125q0.203125 0.0625 0.34375 0.21875q0.125 0.140625 0.203125 0.359375q0.09375 0.21875 0.125 0.5l-2.21875 1.6875zm2.234375 0.296875q0 0.421875 -0.09375 0.734375q-0.078125 0.3125 -0.265625 0.5q-0.125 0.140625 -0.328125 0.21875q-0.1875 0.0625 -0.421875 0.0625q-0.234375 0 -0.421875 -0.0625q-0.1875 -0.0625 -0.328125 -0.203125q-0.140625 -0.140625 -0.234375 -0.359375q-0.09375 -0.21875 -0.125 -0.5l2.21875 -1.6875q0 0.109375 0 0.28125q0 0.15625 0 0.21875l0 0.796875zm5.5195312 -0.140625l0 -1.34375q0 -0.53125 -0.125 -0.953125q-0.125 -0.421875 -0.359375 -0.71875q-0.234375 -0.28125 -0.578125 -0.421875q-0.34375 -0.15625 -0.78125 -0.15625q-0.4375 0 -0.78125 0.15625q-0.328125 0.140625 -0.5625 0.421875q-0.25 0.296875 -0.375 0.71875q-0.125 0.421875 -0.125 0.953125l0 1.34375q0 0.53125 0.125 0.953125q0.125 0.421875 0.375 0.703125q0.234375 0.296875 0.578125 0.453125q0.34375 0.140625 0.78125 0.140625q0.4375 0 0.765625 -0.140625q0.34375 -0.15625 0.578125 -0.453125q0.234375 -0.28125 0.359375 -0.703125q0.125 -0.421875 0.125 -0.953125zm-2.953125 -0.15625q0 -0.09375 0 -0.1875q0 -0.109375 0 -0.203125l0 -0.953125q0 -0.390625 0.078125 -0.6875q0.078125 -0.3125 0.25 -0.5q0.125 -0.15625 0.328125 -0.234375q0.203125 -0.078125 0.453125 -0.078125q0.25 0 0.4375 0.078125q0.203125 0.0625 0.34375 0.21875q0.125 0.140625 0.203125 0.359375q0.09375 0.21875 0.125 0.5l-2.21875 1.6875zm2.234375 0.296875q0 0.421875 -0.09375 0.734375q-0.078125 0.3125 -0.265625 0.5q-0.125 0.140625 -0.328125 0.21875q-0.1875 0.0625 -0.421875 0.0625q-0.234375 0 -0.421875 -0.0625q-0.1875 -0.0625 -0.328125 -0.203125q-0.140625 -0.140625 -0.234375 -0.359375q-0.09375 -0.21875 -0.125 -0.5l2.21875 -1.6875q0 0.109375 0 0.28125q0 0.15625 0 0.21875l0 0.796875zm5.5195312 -0.140625l0 -1.34375q0 -0.53125 -0.125 -0.953125q-0.125 -0.421875 -0.359375 -0.71875q-0.234375 -0.28125 -0.578125 -0.421875q-0.34375 -0.15625 -0.78125 -0.15625q-0.4375 0 -0.78125 0.15625q-0.328125 0.140625 -0.5625 0.421875q-0.25 0.296875 -0.375 0.71875q-0.125 0.421875 -0.125 0.953125l0 1.34375q0 0.53125 0.125 0.953125q0.125 0.421875 0.375 0.703125q0.234375 0.296875 0.578125 0.453125q0.34375 0.140625 0.78125 0.140625q0.4375 0 0.765625 -0.140625q0.34375 -0.15625 0.578125 -0.453125q0.234375 -0.28125 0.359375 -0.703125q0.125 -0.421875 0.125 -0.953125zm-2.953125 -0.15625q0 -0.09375 0 -0.1875q0 -0.109375 0 -0.203125l0 -0.953125q0 -0.390625 0.078125 -0.6875q0.078125 -0.3125 0.25 -0.5q0.125 -0.15625 0.328125 -0.234375q0.203125 -0.078125 0.453125 -0.078125q0.25 0 0.4375 0.078125q0.203125 0.0625 0.34375 0.21875q0.125 0.140625 0.203125 0.359375q0.09375 0.21875 0.125 0.5l-2.21875 1.6875zm2.234375 0.296875q0 0.421875 -0.09375 0.734375q-0.078125 0.3125 -0.265625 0.5q-0.125 0.140625 -0.328125 0.21875q-0.1875 0.0625 -0.421875 0.0625q-0.234375 0 -0.421875 -0.0625q-0.1875 -0.0625 -0.328125 -0.203125q-0.140625 -0.140625 -0.234375 -0.359375q-0.09375 -0.21875 -0.125 -0.5l2.21875 -1.6875q0 0.109375 0 0.28125q0 0.15625 0 0.21875l0 0.796875zm5.5195312 -0.140625l0 -1.34375q0 -0.53125 -0.125 -0.953125q-0.125 -0.421875 -0.359375 -0.71875q-0.234375 -0.28125 -0.578125 -0.421875q-0.34375 -0.15625 -0.78125 -0.15625q-0.4375 0 -0.78125 0.15625q-0.328125 0.140625 -0.5625 0.421875q-0.25 0.296875 -0.375 0.71875q-0.125 0.421875 -0.125 0.953125l0 1.34375q0 0.53125 0.125 0.953125q0.125 0.421875 0.375 0.703125q0.234375 0.296875 0.578125 0.453125q0.34375 0.140625 0.78125 0.140625q0.4375 0 0.765625 -0.140625q0.34375 -0.15625 0.578125 -0.453125q0.234375 -0.28125 0.359375 -0.703125q0.125 -0.421875 0.125 -0.953125zm-2.953125 -0.15625q0 -0.09375 0 -0.1875q0 -0.109375 0 -0.203125l0 -0.953125q0 -0.390625 0.078125 -0.6875q0.078125 -0.3125 0.25 -0.5q0.125 -0.15625 0.328125 -0.234375q0.203125 -0.078125 0.453125 -0.078125q0.25 0 0.4375 0.078125q0.203125 0.0625 0.34375 0.21875q0.125 0.140625 0.203125 0.359375q0.09375 0.21875 0.125 0.5l-2.21875 1.6875zm2.234375 0.296875q0 0.421875 -0.09375 0.734375q-0.078125 0.3125 -0.265625 0.5q-0.125 0.140625 -0.328125 0.21875q-0.1875 0.0625 -0.421875 0.0625q-0.234375 0 -0.421875 -0.0625q-0.1875 -0.0625 -0.328125 -0.203125q-0.140625 -0.140625 -0.234375 -0.359375q-0.09375 -0.21875 -0.125 -0.5l2.21875 -1.6875q0 0.109375 0 0.28125q0 0.15625 0 0.21875l0 0.796875zm5.5195312 -0.140625l0 -1.34375q0 -0.53125 -0.125 -0.953125q-0.125 -0.421875 -0.359375 -0.71875q-0.234375 -0.28125 -0.578125 -0.421875q-0.34375 -0.15625 -0.78125 -0.15625q-0.4375 0 -0.78125 0.15625q-0.328125 0.140625 -0.5625 0.421875q-0.25 0.296875 -0.375 0.71875q-0.125 0.421875 -0.125 0.953125l0 1.34375q0 0.53125 0.125 0.953125q0.125 0.421875 0.375 0.703125q0.234375 0.296875 0.578125 0.453125q0.34375 0.140625 0.78125 0.140625q0.4375 0 0.765625 -0.140625q0.34375 -0.15625 0.578125 -0.453125q0.234375 -0.28125 0.359375 -0.703125q0.125 -0.421875 0.125 -0.953125zm-2.953125 -0.15625q0 -0.09375 0 -0.1875q0 -0.109375 0 -0.203125l0 -0.953125q0 -0.390625 0.078125 -0.6875q0.078125 -0.3125 0.25 -0.5q0.125 -0.15625 0.328125 -0.234375q0.203125 -0.078125 0.453125 -0.078125q0.25 0 0.4375 0.078125q0.203125 0.0625 0.34375 0.21875q0.125 0.140625 0.203125 0.359375q0.09375 0.21875 0.125 0.5l-2.21875 1.6875zm2.234375 0.296875q0 0.421875 -0.09375 0.734375q-0.078125 0.3125 -0.265625 0.5q-0.125 0.140625 -0.328125 0.21875q-0.1875 0.0625 -0.421875 0.0625q-0.234375 0 -0.421875 -0.0625q-0.1875 -0.0625 -0.328125 -0.203125q-0.140625 -0.140625 -0.234375 -0.359375q-0.09375 -0.21875 -0.125 -0.5l2.21875 -1.6875q0 0.109375 0 0.28125q0 0.15625 0 0.21875l0 0.796875zm5.5195312 -0.140625l0 -1.34375q0 -0.53125 -0.125 -0.953125q-0.125 -0.421875 -0.359375 -0.71875q-0.234375 -0.28125 -0.578125 -0.421875q-0.34375 -0.15625 -0.78125 -0.15625q-0.4375 0 -0.78125 0.15625q-0.328125 0.140625 -0.5625 0.421875q-0.25 0.296875 -0.375 0.71875q-0.125 0.421875 -0.125 0.953125l0 1.34375q0 0.53125 0.125 0.953125q0.125 0.421875 0.375 0.703125q0.234375 0.296875 0.578125 0.453125q0.34375 0.140625 0.78125 0.140625q0.4375 0 0.765625 -0.140625q0.34375 -0.15625 0.578125 -0.453125q0.234375 -0.28125 0.359375 -0.703125q0.125 -0.421875 0.125 -0.953125zm-2.953125 -0.15625q0 -0.09375 0 -0.1875q0 -0.109375 0 -0.203125l0 -0.953125q0 -0.390625 0.078125 -0.6875q0.078125 -0.3125 0.25 -0.5q0.125 -0.15625 0.328125 -0.234375q0.203125 -0.078125 0.453125 -0.078125q0.25 0 0.4375 0.078125q0.203125 0.0625 0.34375 0.21875q0.125 0.140625 0.203125 0.359375q0.09375 0.21875 0.125 0.5l-2.21875 1.6875zm2.234375 0.296875q0 0.421875 -0.09375 0.734375q-0.078125 0.3125 -0.265625 0.5q-0.125 0.140625 -0.328125 0.21875q-0.1875 0.0625 -0.421875 0.0625q-0.234375 0 -0.421875 -0.0625q-0.1875 -0.0625 -0.328125 -0.203125q-0.140625 -0.140625 -0.234375 -0.359375q-0.09375 -0.21875 -0.125 -0.5l2.21875 -1.6875q0 0.109375 0 0.28125q0 0.15625 0 0.21875l0 0.796875zm7.4609375 -0.28125l0 0.046875q0 0.546875 0.09375 1.046875q0.09375 0.484375 0.234375 0.90625q0.140625 0.421875 0.328125 0.765625q0.203125 0.359375 0.421875 0.625q0.203125 0.265625 0.421875 0.453125q0.21875 0.203125 0.421875 0.3125l0.140625 -0.453125q-0.15625 -0.125 -0.3125 -0.3125q-0.15625 -0.171875 -0.3125 -0.40625q-0.140625 -0.25 -0.28125 -0.5625q-0.125 -0.3125 -0.21875 -0.671875q-0.09375 -0.359375 -0.15625 -0.78125q-0.046875 -0.4375 -0.046875 -0.921875l0 -0.046875q0 -0.515625 0.046875 -0.953125q0.0625 -0.4375 0.171875 -0.8125q0.109375 -0.40625 0.265625 -0.75q0.171875 -0.34375 0.34375 -0.59375q0.125 -0.15625 0.25 -0.28125q0.125 -0.140625 0.25 -0.234375l-0.140625 -0.484375q-0.203125 0.109375 -0.421875 0.3125q-0.203125 0.1875 -0.421875 0.453125q-0.21875 0.265625 -0.40625 0.625q-0.1875 0.34375 -0.34375 0.75q-0.140625 0.421875 -0.234375 0.921875q-0.09375 0.484375 -0.09375 1.046875zm7.6601562 0.140625l0 -1.34375q0 -0.53125 -0.125 -0.953125q-0.125 -0.421875 -0.359375 -0.71875q-0.234375 -0.28125 -0.578125 -0.421875q-0.34375 -0.15625 -0.78125 -0.15625q-0.4375 0 -0.78125 0.15625q-0.328125 0.140625 -0.5625 0.421875q-0.25 0.296875 -0.375 0.71875q-0.125 0.421875 -0.125 0.953125l0 1.34375q0 0.53125 0.125 0.953125q0.125 0.421875 0.375 0.703125q0.234375 0.296875 0.578125 0.453125q0.34375 0.140625 0.78125 0.140625q0.4375 0 0.765625 -0.140625q0.34375 -0.15625 0.578125 -0.453125q0.234375 -0.28125 0.359375 -0.703125q0.125 -0.421875 0.125 -0.953125zm-2.953125 -0.15625q0 -0.09375 0 -0.1875q0 -0.109375 0 -0.203125l0 -0.953125q0 -0.390625 0.078125 -0.6875q0.078125 -0.3125 0.25 -0.5q0.125 -0.15625 0.328125 -0.234375q0.203125 -0.078125 0.453125 -0.078125q0.25 0 0.4375 0.078125q0.203125 0.0625 0.34375 0.21875q0.125 0.140625 0.203125 0.359375q0.09375 0.21875 0.125 0.5l-2.21875 1.6875zm2.234375 0.296875q0 0.421875 -0.09375 0.734375q-0.078125 0.3125 -0.265625 0.5q-0.125 0.140625 -0.328125 0.21875q-0.1875 0.0625 -0.421875 0.0625q-0.234375 0 -0.421875 -0.0625q-0.1875 -0.0625 -0.328125 -0.203125q-0.140625 -0.140625 -0.234375 -0.359375q-0.09375 -0.21875 -0.125 -0.5l2.21875 -1.6875q0 0.109375 0 0.28125q0 0.15625 0 0.21875l0 0.796875zm4.5820312 -0.234375l0 -0.046875q0 -0.59375 -0.09375 -1.0625q-0.078125 -0.484375 -0.21875 -0.90625q-0.15625 -0.421875 -0.34375 -0.75q-0.1875 -0.34375 -0.40625 -0.625q-0.21875 -0.265625 -0.4375 -0.453125q-0.21875 -0.203125 -0.40625 -0.3125l-0.15625 0.4375q0.125 0.109375 0.265625 0.265625q0.140625 0.140625 0.265625 0.34375q0.171875 0.25 0.328125 0.59375q0.15625 0.34375 0.28125 0.78125q0.078125 0.296875 0.140625 0.734375q0.0625 0.421875 0.0625 0.953125l0 0.046875q0 0.46875 -0.046875 0.875q-0.046875 0.40625 -0.140625 0.765625q-0.09375 0.375 -0.234375 0.6875q-0.125 0.328125 -0.265625 0.578125q-0.15625 0.25 -0.328125 0.4375q-0.15625 0.203125 -0.328125 0.3125l0.15625 0.453125q0.1875 -0.109375 0.40625 -0.3125q0.21875 -0.1875 0.4375 -0.453125q0.203125 -0.265625 0.390625 -0.625q0.203125 -0.34375 0.359375 -0.765625q0.140625 -0.421875 0.21875 -0.90625q0.09375 -0.5 0.09375 -1.046875z" fill-rule="nonzero"/><path fill="#6aa84f" d="m31.254593 48.61155l50.645668 0l0 10.614174l-50.645668 0z" fill-rule="evenodd"/><path stroke="#000000" stroke-width="1.0" stroke-linejoin="round" stroke-linecap="butt" d="m31.254593 48.61155l50.645668 0l0 10.614174l-50.645668 0z" fill-rule="evenodd"/><path fill="#000000" d="m37.77908 57.64676l0 -4.78125l0.53125 0l0 0.453125q0.1875 -0.265625 0.421875 -0.390625q0.25 -0.140625 0.578125 -0.140625q0.453125 0 0.78125 0.234375q0.34375 0.21875 0.515625 0.640625q0.171875 0.40625 0.171875 0.90625q0 0.53125 -0.1875 0.953125q-0.1875 0.421875 -0.5625 0.65625q-0.359375 0.21875 -0.75 0.21875q-0.296875 0 -0.53125 -0.125q-0.234375 -0.125 -0.375 -0.3125l0 1.6875l-0.59375 0zm0.53125 -3.03125q0 0.65625 0.265625 0.984375q0.28125 0.3125 0.65625 0.3125q0.390625 0 0.671875 -0.328125q0.28125 -0.328125 0.28125 -1.015625q0 -0.671875 -0.28125 -1.0q-0.265625 -0.328125 -0.640625 -0.328125q-0.375 0 -0.671875 0.359375q-0.28125 0.34375 -0.28125 1.015625zm5.420639 1.28125q-0.328125 0.265625 -0.625 0.390625q-0.296875 0.109375 -0.640625 0.109375q-0.578125 0 -0.890625 -0.28125q-0.296875 -0.28125 -0.296875 -0.703125q0 -0.25 0.109375 -0.453125q0.125 -0.21875 0.3125 -0.34375q0.1875 -0.140625 0.421875 -0.203125q0.171875 -0.046875 0.515625 -0.078125q0.71875 -0.09375 1.046875 -0.203125q0 -0.125 0 -0.15625q0 -0.359375 -0.15625 -0.5q-0.234375 -0.203125 -0.671875 -0.203125q-0.40625 0 -0.609375 0.15625q-0.203125 0.140625 -0.296875 0.5l-0.5625 -0.078125q0.078125 -0.359375 0.25 -0.578125q0.1875 -0.234375 0.515625 -0.359375q0.34375 -0.125 0.78125 -0.125q0.453125 0 0.71875 0.109375q0.28125 0.09375 0.40625 0.265625q0.140625 0.15625 0.1875 0.390625q0.03125 0.15625 0.03125 0.546875l0 0.765625q0 0.828125 0.03125 1.046875q0.046875 0.203125 0.15625 0.40625l-0.609375 0q-0.09375 -0.1875 -0.125 -0.421875zm-0.046875 -1.3125q-0.3125 0.125 -0.953125 0.21875q-0.359375 0.0625 -0.515625 0.125q-0.140625 0.0625 -0.234375 0.1875q-0.078125 0.125 -0.078125 0.28125q0 0.234375 0.171875 0.390625q0.1875 0.15625 0.53125 0.15625q0.328125 0 0.59375 -0.140625q0.265625 -0.15625 0.390625 -0.421875q0.09375 -0.1875 0.09375 -0.578125l0 -0.21875zm1.498764 1.734375l0 -3.453125l0.515625 0l0 0.53125q0.203125 -0.375 0.375 -0.484375q0.171875 -0.125 0.375 -0.125q0.296875 0 0.609375 0.1875l-0.203125 0.546875q-0.21875 -0.125 -0.4375 -0.125q-0.1875 0 -0.34375 0.125q-0.140625 0.109375 -0.21875 0.3125q-0.09375 0.3125 -0.09375 0.671875l0 1.8125l-0.578125 0zm4.4665833 -0.421875q-0.328125 0.265625 -0.625 0.390625q-0.296875 0.109375 -0.640625 0.109375q-0.578125 0 -0.890625 -0.28125q-0.296875 -0.28125 -0.296875 -0.703125q0 -0.25 0.109375 -0.453125q0.125 -0.21875 0.3125 -0.34375q0.1875 -0.140625 0.421875 -0.203125q0.171875 -0.046875 0.515625 -0.078125q0.71875 -0.09375 1.046875 -0.203125q0 -0.125 0 -0.15625q0 -0.359375 -0.15625 -0.5q-0.234375 -0.203125 -0.671875 -0.203125q-0.40625 0 -0.609375 0.15625q-0.203125 0.140625 -0.296875 0.5l-0.5625 -0.078125q0.078125 -0.359375 0.25 -0.578125q0.1875 -0.234375 0.515625 -0.359375q0.34375 -0.125 0.78125 -0.125q0.453125 0 0.71875 0.109375q0.28125 0.09375 0.40625 0.265625q0.140625 0.15625 0.1875 0.390625q0.03125 0.15625 0.03125 0.546875l0 0.765625q0 0.828125 0.03125 1.046875q0.046875 0.203125 0.15625 0.40625l-0.609375 0q-0.09375 -0.1875 -0.125 -0.421875zm-0.046875 -1.3125q-0.3125 0.125 -0.953125 0.21875q-0.359375 0.0625 -0.515625 0.125q-0.140625 0.0625 -0.234375 0.1875q-0.078125 0.125 -0.078125 0.28125q0 0.234375 0.171875 0.390625q0.1875 0.15625 0.53125 0.15625q0.328125 0 0.59375 -0.140625q0.265625 -0.15625 0.390625 -0.421875q0.09375 -0.1875 0.09375 -0.578125l0 -0.21875zm1.498764 1.734375l0 -3.453125l0.53125 0l0 0.484375q0.15625 -0.25 0.421875 -0.40625q0.28125 -0.15625 0.625 -0.15625q0.375 0 0.625 0.15625q0.25 0.15625 0.34375 0.453125q0.40625 -0.609375 1.0625 -0.609375q0.515625 0 0.78125 0.296875q0.28125 0.28125 0.28125 0.859375l0 2.375l-0.578125 0l0 -2.171875q0 -0.359375 -0.0625 -0.5q-0.046875 -0.15625 -0.203125 -0.25q-0.140625 -0.09375 -0.34375 -0.09375q-0.359375 0 -0.609375 0.25q-0.234375 0.234375 -0.234375 0.765625l0 2.0l-0.59375 0l0 -2.25q0 -0.375 -0.140625 -0.5625q-0.140625 -0.203125 -0.46875 -0.203125q-0.25 0 -0.453125 0.125q-0.203125 0.125 -0.296875 0.375q-0.09375 0.25 -0.09375 0.71875l0 1.796875l-0.59375 0zm5.3103333 -1.03125l0.578125 -0.09375q0.046875 0.34375 0.265625 0.53125q0.234375 0.1875 0.625 0.1875q0.40625 0 0.59375 -0.15625q0.203125 -0.171875 0.203125 -0.390625q0 -0.203125 -0.171875 -0.3125q-0.125 -0.078125 -0.59375 -0.203125q-0.640625 -0.15625 -0.890625 -0.265625q-0.25 -0.125 -0.390625 -0.328125q-0.125 -0.21875 -0.125 -0.46875q0 -0.234375 0.109375 -0.421875q0.109375 -0.203125 0.296875 -0.34375q0.125 -0.09375 0.359375 -0.15625q0.234375 -0.078125 0.515625 -0.078125q0.40625 0 0.703125 0.125q0.3125 0.109375 0.453125 0.3125q0.15625 0.203125 0.203125 0.53125l-0.5625 0.078125q-0.046875 -0.265625 -0.234375 -0.40625q-0.1875 -0.15625 -0.53125 -0.15625q-0.390625 0 -0.5625 0.140625q-0.171875 0.125 -0.171875 0.296875q0 0.125 0.0625 0.203125q0.078125 0.109375 0.21875 0.15625q0.09375 0.046875 0.53125 0.15625q0.609375 0.171875 0.859375 0.28125q0.25 0.09375 0.390625 0.296875q0.140625 0.203125 0.140625 0.5q0 0.296875 -0.171875 0.5625q-0.171875 0.25 -0.5 0.390625q-0.3125 0.140625 -0.71875 0.140625q-0.6875 0 -1.046875 -0.28125q-0.34375 -0.28125 -0.4375 -0.828125zm5.609375 1.03125l-0.59375 0l0 -3.734375q-0.203125 0.203125 -0.546875 0.40625q-0.34375 0.203125 -0.625 0.3125l0 -0.578125q0.5 -0.21875 0.859375 -0.546875q0.375 -0.328125 0.53125 -0.640625l0.375 0l0 4.78125zm1.436264 -1.4375l0 -0.578125l1.7968788 0l0 0.578125l-1.7968788 0zm2.435337 1.4375l0 -4.765625l0.59375 0l0 2.71875l1.375 -1.40625l0.765625 0l-1.328125 1.28125l1.453125 2.171875l-0.71875 0l-1.140625 -1.765625l-0.40625 0.390625l0 1.375l-0.59375 0zm5.6875 -1.109375l0.609375 0.078125q-0.140625 0.53125 -0.53125 0.828125q-0.390625 0.28125 -0.984375 0.28125q-0.765625 0 -1.203125 -0.46875q-0.4375 -0.46875 -0.4375 -1.3125q0 -0.859375 0.4375 -1.34375q0.453125 -0.484375 1.171875 -0.484375q0.6875 0 1.125 0.46875q0.4375 0.46875 0.4375 1.328125q0 0.046875 0 0.15625l-2.578125 0q0.03125 0.578125 0.3125 0.875q0.296875 0.296875 0.734375 0.296875q0.328125 0 0.546875 -0.15625q0.234375 -0.171875 0.359375 -0.546875zm-1.921875 -0.953125l1.9375 0q-0.046875 -0.4375 -0.21875 -0.640625q-0.28125 -0.34375 -0.734375 -0.34375q-0.40625 0 -0.6875 0.265625q-0.265625 0.265625 -0.296875 0.71875zm3.233139 3.390625l-0.0625 -0.546875q0.203125 0.046875 0.34375 0.046875q0.1875 0 0.296875 -0.0625q0.125 -0.0625 0.203125 -0.1875q0.046875 -0.078125 0.171875 -0.421875q0.015625 -0.0625 0.0625 -0.15625l-1.3125 -3.453125l0.625 0l0.71875 2.0q0.140625 0.375 0.25 0.796875q0.109375 -0.40625 0.25 -0.78125l0.734375 -2.015625l0.578125 0l-1.3125 3.515625q-0.203125 0.5625 -0.328125 0.78125q-0.15625 0.28125 -0.359375 0.421875q-0.203125 0.140625 -0.46875 0.140625q-0.171875 0 -0.390625 -0.078125z" fill-rule="nonzero"/><path fill="#6aa84f" d="m103.83202 48.61155l50.645668 0l0 47.1811l-50.645668 0z" fill-rule="evenodd"/><path stroke="#000000" stroke-width="1.0" stroke-linejoin="round" stroke-linecap="butt" d="m103.83202 48.61155l50.645668 0l0 47.1811l-50.645668 0z" fill-rule="evenodd"/><path fill="#000000" d="m105.26952 55.011547l0 -3.453125l0.515625 0l0 0.53125q0.203125 -0.375 0.375 -0.484375q0.171875 -0.125 0.375 -0.125q0.296875 0 0.609375 0.1875l-0.203125 0.546875q-0.21875 -0.125 -0.4375 -0.125q-0.1875 0 -0.34375 0.125q-0.140625 0.109375 -0.21875 0.3125q-0.09375 0.3125 -0.09375 0.671875l0 1.8125l-0.578125 0zm4.5759583 -1.109375l0.609375 0.078125q-0.140625 0.53125 -0.53125 0.828125q-0.390625 0.28125 -0.984375 0.28125q-0.765625 0 -1.203125 -0.46875q-0.4375 -0.46875 -0.4375 -1.3125q0 -0.859375 0.4375 -1.34375q0.453125 -0.484375 1.171875 -0.484375q0.6875 0 1.125 0.46875q0.4375 0.46875 0.4375 1.328125q0 0.046875 0 0.15625l-2.578125 0q0.03125 0.578125 0.3125 0.875q0.296875 0.296875 0.734375 0.296875q0.328125 0 0.546875 -0.15625q0.234375 -0.171875 0.359375 -0.546875zm-1.921875 -0.953125l1.9375 0q-0.046875 -0.4375 -0.21875 -0.640625q-0.28125 -0.34375 -0.734375 -0.34375q-0.40625 0 -0.6875 0.265625q-0.265625 0.265625 -0.296875 0.71875zm3.030014 1.03125l0.578125 -0.09375q0.046875 0.34375 0.265625 0.53125q0.234375 0.1875 0.625 0.1875q0.40625 0 0.59375 -0.15625q0.203125 -0.171875 0.203125 -0.390625q0 -0.203125 -0.171875 -0.3125q-0.125 -0.078125 -0.59375 -0.203125q-0.640625 -0.15625 -0.890625 -0.265625q-0.25 -0.125 -0.390625 -0.328125q-0.125 -0.21875 -0.125 -0.46875q0 -0.234375 0.109375 -0.421875q0.109375 -0.203125 0.296875 -0.34375q0.125 -0.09375 0.359375 -0.15625q0.234375 -0.078125 0.515625 -0.078125q0.40625 0 0.703125 0.125q0.3125 0.109375 0.453125 0.3125q0.15625 0.203125 0.203125 0.53125l-0.5625 0.078125q-0.046875 -0.265625 -0.234375 -0.40625q-0.1875 -0.15625 -0.53125 -0.15625q-0.390625 0 -0.5625 0.140625q-0.171875 0.125 -0.171875 0.296875q0 0.125 0.0625 0.203125q0.078125 0.109375 0.21875 0.15625q0.09375 0.046875 0.53125 0.15625q0.609375 0.171875 0.859375 0.28125q0.25 0.09375 0.390625 0.296875q0.140625 0.203125 0.140625 0.5q0 0.296875 -0.171875 0.5625q-0.171875 0.25 -0.5 0.390625q-0.3125 0.140625 -0.71875 0.140625q-0.6875 0 -1.046875 -0.28125q-0.34375 -0.28125 -0.4375 -0.828125zm5.828125 1.03125l0 -0.5q-0.40625 0.578125 -1.09375 0.578125q-0.3125 0 -0.578125 -0.109375q-0.265625 -0.125 -0.390625 -0.296875q-0.125 -0.1875 -0.171875 -0.4375q-0.046875 -0.171875 -0.046875 -0.546875l0 -2.140625l0.59375 0l0 1.921875q0 0.453125 0.03125 0.609375q0.0625 0.234375 0.234375 0.375q0.171875 0.125 0.4375 0.125q0.265625 0 0.5 -0.140625q0.234375 -0.140625 0.328125 -0.359375q0.09375 -0.234375 0.09375 -0.6875l0 -1.84375l0.578125 0l0 3.453125l-0.515625 0zm1.420639 0l0 -4.765625l0.59375 0l0 4.765625l-0.59375 0zm2.7756805 -0.515625l0.078125 0.515625q-0.25 0.046875 -0.4375 0.046875q-0.3125 0 -0.5 -0.09375q-0.171875 -0.109375 -0.25 -0.265625q-0.0625 -0.171875 -0.0625 -0.703125l0 -1.984375l-0.4375 0l0 -0.453125l0.4375 0l0 -0.859375l0.578125 -0.34375l0 1.203125l0.59375 0l0 0.453125l-0.59375 0l0 2.015625q0 0.25 0.03125 0.328125q0.03125 0.078125 0.09375 0.125q0.078125 0.03125 0.203125 0.03125q0.109375 0 0.265625 -0.015625zm0.33369446 -0.515625l0.578125 -0.09375q0.046875 0.34375 0.265625 0.53125q0.234375 0.1875 0.625 0.1875q0.40625 0 0.59375 -0.15625q0.203125 -0.171875 0.203125 -0.390625q0 -0.203125 -0.171875 -0.3125q-0.125 -0.078125 -0.59375 -0.203125q-0.640625 -0.15625 -0.890625 -0.265625q-0.25 -0.125 -0.390625 -0.328125q-0.125 -0.21875 -0.125 -0.46875q0 -0.234375 0.109375 -0.421875q0.109375 -0.203125 0.296875 -0.34375q0.125 -0.09375 0.359375 -0.15625q0.234375 -0.078125 0.515625 -0.078125q0.40625 0 0.703125 0.125q0.3125 0.109375 0.453125 0.3125q0.15625 0.203125 0.203125 0.53125l-0.5625 0.078125q-0.046875 -0.265625 -0.234375 -0.40625q-0.1875 -0.15625 -0.53125 -0.15625q-0.390625 0 -0.5625 0.140625q-0.171875 0.125 -0.171875 0.296875q0 0.125 0.0625 0.203125q0.078125 0.109375 0.21875 0.15625q0.09375 0.046875 0.53125 0.15625q0.609375 0.171875 0.859375 0.28125q0.25 0.09375 0.390625 0.296875q0.140625 0.203125 0.140625 0.5q0 0.296875 -0.171875 0.5625q-0.171875 0.25 -0.5 0.390625q-0.3125 0.140625 -0.71875 0.140625q-0.6875 0 -1.046875 -0.28125q-0.34375 -0.28125 -0.4375 -0.828125z" fill-rule="nonzero"/><path fill="#000000" fill-opacity="0.0" d="m81.90026 53.918636l21.921265 18.299213" fill-rule="evenodd"/><path stroke="#000000" stroke-width="1.0" stroke-linejoin="round" stroke-linecap="butt" d="m81.90026 53.918636l19.29036 16.103016" fill-rule="evenodd"/><path fill="#000000" stroke="#000000" stroke-width="1.0" stroke-linecap="butt" d="m101.19062 70.02165l-1.583992 0.14264679l3.0926208 1.1167068l-1.6512756 -2.8433456z" fill-rule="evenodd"/><path fill="#674ea7" d="m31.244095 59.225723l50.645668 0l0 10.614174l-50.645668 0z" fill-rule="evenodd"/><path stroke="#000000" stroke-width="1.0" stroke-linejoin="round" stroke-linecap="butt" d="m31.244095 59.225723l50.645668 0l0 10.614174l-50.645668 0z" fill-rule="evenodd"/><path fill="#000000" d="m37.76858 68.26093l0 -4.78125l0.53125 0l0 0.453125q0.1875 -0.265625 0.421875 -0.390625q0.25 -0.140625 0.578125 -0.140625q0.453125 0 0.78125 0.234375q0.34375 0.21875 0.515625 0.640625q0.171875 0.40625 0.171875 0.90625q0 0.53125 -0.1875 0.953125q-0.1875 0.421875 -0.5625 0.65625q-0.359375 0.21875 -0.75 0.21875q-0.296875 0 -0.53125 -0.125q-0.234375 -0.125 -0.375 -0.3125l0 1.6875l-0.59375 0zm0.53125 -3.03125q0 0.65625 0.265625 0.984375q0.28125 0.3125 0.65625 0.3125q0.390625 0 0.671875 -0.328125q0.28125 -0.328125 0.28125 -1.015625q0 -0.671875 -0.28125 -1.0q-0.265625 -0.328125 -0.640625 -0.328125q-0.375 0 -0.671875 0.359375q-0.28125 0.34375 -0.28125 1.015625zm5.420639 1.28125q-0.328125 0.265625 -0.625 0.390625q-0.296875 0.109375 -0.640625 0.109375q-0.578125 0 -0.890625 -0.28125q-0.296875 -0.28125 -0.296875 -0.703125q0 -0.25 0.109375 -0.453125q0.125 -0.21875 0.3125 -0.34375q0.1875 -0.140625 0.421875 -0.203125q0.171875 -0.046875 0.515625 -0.078125q0.71875 -0.09375 1.046875 -0.203125q0 -0.125 0 -0.15625q0 -0.359375 -0.15625 -0.5q-0.234375 -0.203125 -0.671875 -0.203125q-0.40625 0 -0.609375 0.15625q-0.203125 0.140625 -0.296875 0.5l-0.5625 -0.078125q0.078125 -0.359375 0.25 -0.578125q0.1875 -0.234375 0.515625 -0.359375q0.34375 -0.125 0.78125 -0.125q0.453125 0 0.71875 0.109375q0.28125 0.09375 0.40625 0.265625q0.140625 0.15625 0.1875 0.390625q0.03125 0.15625 0.03125 0.546875l0 0.765625q0 0.828125 0.03125 1.046875q0.046875 0.203125 0.15625 0.40625l-0.609375 0q-0.09375 -0.1875 -0.125 -0.421875zm-0.046875 -1.3125q-0.3125 0.125 -0.953125 0.21875q-0.359375 0.0625 -0.515625 0.125q-0.140625 0.0625 -0.234375 0.1875q-0.078125 0.125 -0.078125 0.28125q0 0.234375 0.171875 0.390625q0.1875 0.15625 0.53125 0.15625q0.328125 0 0.59375 -0.140625q0.265625 -0.15625 0.390625 -0.421875q0.09375 -0.1875 0.09375 -0.578125l0 -0.21875zm1.498764 1.734375l0 -3.453125l0.515625 0l0 0.53125q0.203125 -0.375 0.375 -0.484375q0.171875 -0.125 0.375 -0.125q0.296875 0 0.609375 0.1875l-0.203125 0.546875q-0.21875 -0.125 -0.4375 -0.125q-0.1875 0 -0.34375 0.125q-0.140625 0.109375 -0.21875 0.3125q-0.09375 0.3125 -0.09375 0.671875l0 1.8125l-0.578125 0zm4.4665833 -0.421875q-0.328125 0.265625 -0.625 0.390625q-0.296875 0.109375 -0.640625 0.109375q-0.578125 0 -0.890625 -0.28125q-0.296875 -0.28125 -0.296875 -0.703125q0 -0.25 0.109375 -0.453125q0.125 -0.21875 0.3125 -0.34375q0.1875 -0.140625 0.421875 -0.203125q0.171875 -0.046875 0.515625 -0.078125q0.71875 -0.09375 1.046875 -0.203125q0 -0.125 0 -0.15625q0 -0.359375 -0.15625 -0.5q-0.234375 -0.203125 -0.671875 -0.203125q-0.40625 0 -0.609375 0.15625q-0.203125 0.140625 -0.296875 0.5l-0.5625 -0.078125q0.078125 -0.359375 0.25 -0.578125q0.1875 -0.234375 0.515625 -0.359375q0.34375 -0.125 0.78125 -0.125q0.453125 0 0.71875 0.109375q0.28125 0.09375 0.40625 0.265625q0.140625 0.15625 0.1875 0.390625q0.03125 0.15625 0.03125 0.546875l0 0.765625q0 0.828125 0.03125 1.046875q0.046875 0.203125 0.15625 0.40625l-0.609375 0q-0.09375 -0.1875 -0.125 -0.421875zm-0.046875 -1.3125q-0.3125 0.125 -0.953125 0.21875q-0.359375 0.0625 -0.515625 0.125q-0.140625 0.0625 -0.234375 0.1875q-0.078125 0.125 -0.078125 0.28125q0 0.234375 0.171875 0.390625q0.1875 0.15625 0.53125 0.15625q0.328125 0 0.59375 -0.140625q0.265625 -0.15625 0.390625 -0.421875q0.09375 -0.1875 0.09375 -0.578125l0 -0.21875zm1.498764 1.734375l0 -3.453125l0.53125 0l0 0.484375q0.15625 -0.25 0.421875 -0.40625q0.28125 -0.15625 0.625 -0.15625q0.375 0 0.625 0.15625q0.25 0.15625 0.34375 0.453125q0.40625 -0.609375 1.0625 -0.609375q0.515625 0 0.78125 0.296875q0.28125 0.28125 0.28125 0.859375l0 2.375l-0.578125 0l0 -2.171875q0 -0.359375 -0.0625 -0.5q-0.046875 -0.15625 -0.203125 -0.25q-0.140625 -0.09375 -0.34375 -0.09375q-0.359375 0 -0.609375 0.25q-0.234375 0.234375 -0.234375 0.765625l0 2.0l-0.59375 0l0 -2.25q0 -0.375 -0.140625 -0.5625q-0.140625 -0.203125 -0.46875 -0.203125q-0.25 0 -0.453125 0.125q-0.203125 0.125 -0.296875 0.375q-0.09375 0.25 -0.09375 0.71875l0 1.796875l-0.59375 0zm5.3103333 -1.03125l0.578125 -0.09375q0.046875 0.34375 0.265625 0.53125q0.234375 0.1875 0.625 0.1875q0.40625 0 0.59375 -0.15625q0.203125 -0.171875 0.203125 -0.390625q0 -0.203125 -0.171875 -0.3125q-0.125 -0.078125 -0.59375 -0.203125q-0.640625 -0.15625 -0.890625 -0.265625q-0.25 -0.125 -0.390625 -0.328125q-0.125 -0.21875 -0.125 -0.46875q0 -0.234375 0.109375 -0.421875q0.109375 -0.203125 0.296875 -0.34375q0.125 -0.09375 0.359375 -0.15625q0.234375 -0.078125 0.515625 -0.078125q0.40625 0 0.703125 0.125q0.3125 0.109375 0.453125 0.3125q0.15625 0.203125 0.203125 0.53125l-0.5625 0.078125q-0.046875 -0.265625 -0.234375 -0.40625q-0.1875 -0.15625 -0.53125 -0.15625q-0.390625 0 -0.5625 0.140625q-0.171875 0.125 -0.171875 0.296875q0 0.125 0.0625 0.203125q0.078125 0.109375 0.21875 0.15625q0.09375 0.046875 0.53125 0.15625q0.609375 0.171875 0.859375 0.28125q0.25 0.09375 0.390625 0.296875q0.140625 0.203125 0.140625 0.5q0 0.296875 -0.171875 0.5625q-0.171875 0.25 -0.5 0.390625q-0.3125 0.140625 -0.71875 0.140625q-0.6875 0 -1.046875 -0.28125q-0.34375 -0.28125 -0.4375 -0.828125zm6.46875 0.46875l0 0.5625l-3.140625 0q-0.015625 -0.21875 0.0625 -0.40625q0.125 -0.328125 0.390625 -0.640625q0.265625 -0.3125 0.765625 -0.71875q0.78125 -0.640625 1.046875 -1.0q0.28125 -0.375 0.28125 -0.703125q0 -0.359375 -0.25 -0.59375q-0.25 -0.234375 -0.65625 -0.234375q-0.421875 0 -0.671875 0.25q-0.25 0.25 -0.265625 0.703125l-0.59375 -0.0625q0.0625 -0.671875 0.46875 -1.015625q0.40625 -0.359375 1.078125 -0.359375q0.6875 0 1.078125 0.375q0.40625 0.375 0.40625 0.9375q0 0.296875 -0.125 0.578125q-0.109375 0.265625 -0.390625 0.578125q-0.265625 0.296875 -0.890625 0.828125q-0.53125 0.453125 -0.6875 0.609375q-0.140625 0.15625 -0.234375 0.3125l2.328125 0zm0.57688904 -0.875l0 -0.578125l1.7968712 0l0 0.578125l-1.7968712 0zm2.4353294 1.4375l0 -4.765625l0.59375 0l0 2.71875l1.375 -1.40625l0.765625 0l-1.328125 1.28125l1.453125 2.171875l-0.71875 0l-1.140625 -1.765625l-0.40625 0.390625l0 1.375l-0.59375 0zm5.6875 -1.109375l0.609375 0.078125q-0.140625 0.53125 -0.53125 0.828125q-0.390625 0.28125 -0.984375 0.28125q-0.765625 0 -1.203125 -0.46875q-0.4375 -0.46875 -0.4375 -1.3125q0 -0.859375 0.4375 -1.34375q0.453125 -0.484375 1.171875 -0.484375q0.6875 0 1.125 0.46875q0.4375 0.46875 0.4375 1.328125q0 0.046875 0 0.15625l-2.578125 0q0.03125 0.578125 0.3125 0.875q0.296875 0.296875 0.734375 0.296875q0.328125 0 0.546875 -0.15625q0.234375 -0.171875 0.359375 -0.546875zm-1.921875 -0.953125l1.9375 0q-0.046875 -0.4375 -0.21875 -0.640625q-0.28125 -0.34375 -0.734375 -0.34375q-0.40625 0 -0.6875 0.265625q-0.265625 0.265625 -0.296875 0.71875zm3.233139 3.390625l-0.0625 -0.546875q0.203125 0.046875 0.34375 0.046875q0.1875 0 0.296875 -0.0625q0.125 -0.0625 0.203125 -0.1875q0.046875 -0.078125 0.171875 -0.421875q0.015625 -0.0625 0.0625 -0.15625l-1.3125 -3.453125l0.625 0l0.71875 2.0q0.140625 0.375 0.25 0.796875q0.109375 -0.40625 0.25 -0.78125l0.734375 -2.015625l0.578125 0l-1.3125 3.515625q-0.203125 0.5625 -0.328125 0.78125q-0.15625 0.28125 -0.359375 0.421875q-0.203125 0.140625 -0.46875 0.140625q-0.171875 0 -0.390625 -0.078125z" fill-rule="nonzero"/><path fill="#674ea7" d="m103.83202 95.79265l50.645668 0l0 47.181107l-50.645668 0z" fill-rule="evenodd"/><path stroke="#000000" stroke-width="1.0" stroke-linejoin="round" stroke-linecap="butt" d="m103.83202 95.79265l50.645668 0l0 47.181107l-50.645668 0z" fill-rule="evenodd"/><path fill="#000000" d="m105.26952 102.19265l0 -3.453125l0.515625 0l0 0.53125q0.203125 -0.375 0.375 -0.484375q0.171875 -0.125 0.375 -0.125q0.296875 0 0.609375 0.1875l-0.203125 0.546875q-0.21875 -0.125 -0.4375 -0.125q-0.1875 0 -0.34375 0.125q-0.140625 0.109375 -0.21875 0.3125q-0.09375 0.3125 -0.09375 0.671875l0 1.8125l-0.578125 0zm4.5759583 -1.109375l0.609375 0.078125q-0.140625 0.53125 -0.53125 0.828125q-0.390625 0.28125 -0.984375 0.28125q-0.765625 0 -1.203125 -0.46875q-0.4375 -0.46875 -0.4375 -1.3125q0 -0.859375 0.4375 -1.34375q0.453125 -0.484375 1.171875 -0.484375q0.6875 0 1.125 0.46875q0.4375 0.46875 0.4375 1.328125q0 0.046875 0 0.15625l-2.578125 0q0.03125 0.578125 0.3125 0.875q0.296875 0.296875 0.734375 0.296875q0.328125 0 0.546875 -0.15625q0.234375 -0.171875 0.359375 -0.546875zm-1.921875 -0.953125l1.9375 0q-0.046875 -0.4375 -0.21875 -0.640625q-0.28125 -0.34375 -0.734375 -0.34375q-0.40625 0 -0.6875 0.265625q-0.265625 0.265625 -0.296875 0.71875zm3.030014 1.03125l0.578125 -0.09375q0.046875 0.34375 0.265625 0.53125q0.234375 0.1875 0.625 0.1875q0.40625 0 0.59375 -0.15625q0.203125 -0.171875 0.203125 -0.390625q0 -0.203125 -0.171875 -0.3125q-0.125 -0.078125 -0.59375 -0.203125q-0.640625 -0.15625 -0.890625 -0.265625q-0.25 -0.125 -0.390625 -0.328125q-0.125 -0.21875 -0.125 -0.46875q0 -0.234375 0.109375 -0.421875q0.109375 -0.203125 0.296875 -0.34375q0.125 -0.09375 0.359375 -0.15625q0.234375 -0.078125 0.515625 -0.078125q0.40625 0 0.703125 0.125q0.3125 0.109375 0.453125 0.3125q0.15625 0.203125 0.203125 0.53125l-0.5625 0.078125q-0.046875 -0.265625 -0.234375 -0.40625q-0.1875 -0.15625 -0.53125 -0.15625q-0.390625 0 -0.5625 0.140625q-0.171875 0.125 -0.171875 0.296875q0 0.125 0.0625 0.203125q0.078125 0.109375 0.21875 0.15625q0.09375 0.046875 0.53125 0.15625q0.609375 0.171875 0.859375 0.28125q0.25 0.09375 0.390625 0.296875q0.140625 0.203125 0.140625 0.5q0 0.296875 -0.171875 0.5625q-0.171875 0.25 -0.5 0.390625q-0.3125 0.140625 -0.71875 0.140625q-0.6875 0 -1.046875 -0.28125q-0.34375 -0.28125 -0.4375 -0.828125zm5.828125 1.03125l0 -0.5q-0.40625 0.578125 -1.09375 0.578125q-0.3125 0 -0.578125 -0.109375q-0.265625 -0.125 -0.390625 -0.296875q-0.125 -0.1875 -0.171875 -0.4375q-0.046875 -0.171875 -0.046875 -0.546875l0 -2.140625l0.59375 0l0 1.921875q0 0.453125 0.03125 0.609375q0.0625 0.234375 0.234375 0.375q0.171875 0.125 0.4375 0.125q0.265625 0 0.5 -0.140625q0.234375 -0.140625 0.328125 -0.359375q0.09375 -0.234375 0.09375 -0.6875l0 -1.84375l0.578125 0l0 3.453125l-0.515625 0zm1.420639 0l0 -4.765625l0.59375 0l0 4.765625l-0.59375 0zm2.7756805 -0.515625l0.078125 0.515625q-0.25 0.046875 -0.4375 0.046875q-0.3125 0 -0.5 -0.09375q-0.171875 -0.109375 -0.25 -0.265625q-0.0625 -0.171875 -0.0625 -0.703125l0 -1.984375l-0.4375 0l0 -0.453125l0.4375 0l0 -0.859375l0.578125 -0.34375l0 1.203125l0.59375 0l0 0.453125l-0.59375 0l0 2.015625q0 0.25 0.03125 0.328125q0.03125 0.078125 0.09375 0.125q0.078125 0.03125 0.203125 0.03125q0.109375 0 0.265625 -0.015625zm0.33369446 -0.515625l0.578125 -0.09375q0.046875 0.34375 0.265625 0.53125q0.234375 0.1875 0.625 0.1875q0.40625 0 0.59375 -0.15625q0.203125 -0.171875 0.203125 -0.390625q0 -0.203125 -0.171875 -0.3125q-0.125 -0.078125 -0.59375 -0.203125q-0.640625 -0.15625 -0.890625 -0.265625q-0.25 -0.125 -0.390625 -0.328125q-0.125 -0.21875 -0.125 -0.46875q0 -0.234375 0.109375 -0.421875q0.109375 -0.203125 0.296875 -0.34375q0.125 -0.09375 0.359375 -0.15625q0.234375 -0.078125 0.515625 -0.078125q0.40625 0 0.703125 0.125q0.3125 0.109375 0.453125 0.3125q0.15625 0.203125 0.203125 0.53125l-0.5625 0.078125q-0.046875 -0.265625 -0.234375 -0.40625q-0.1875 -0.15625 -0.53125 -0.15625q-0.390625 0 -0.5625 0.140625q-0.171875 0.125 -0.171875 0.296875q0 0.125 0.0625 0.203125q0.078125 0.109375 0.21875 0.15625q0.09375 0.046875 0.53125 0.15625q0.609375 0.171875 0.859375 0.28125q0.25 0.09375 0.390625 0.296875q0.140625 0.203125 0.140625 0.5q0 0.296875 -0.171875 0.5625q-0.171875 0.25 -0.5 0.390625q-0.3125 0.140625 -0.71875 0.140625q-0.6875 0 -1.046875 -0.28125q-0.34375 -0.28125 -0.4375 -0.828125z" fill-rule="nonzero"/><path fill="#000000" fill-opacity="0.0" d="m81.88976 64.53281l21.952759 54.866142" fill-rule="evenodd"/><path stroke="#000000" stroke-width="1.0" stroke-linejoin="round" stroke-linecap="butt" d="m81.88976 64.53281l20.679657 51.684303" fill-rule="evenodd"/><path fill="#000000" stroke="#000000" stroke-width="1.0" stroke-linecap="butt" d="m102.56942 116.21711l-1.4618759 -0.6263504l2.1919022 2.4509048l-0.10368347 -3.2864304z" fill-rule="evenodd"/><path fill="#cc0000" d="m31.244095 69.8399l50.645668 0l0 10.614174l-50.645668 0z" fill-rule="evenodd"/><path stroke="#000000" stroke-width="1.0" stroke-linejoin="round" stroke-linecap="butt" d="m31.244095 69.8399l50.645668 0l0 10.614174l-50.645668 0z" fill-rule="evenodd"/><path fill="#000000" d="m37.76858 78.87511l0 -4.78125l0.53125 0l0 0.453125q0.1875 -0.265625 0.421875 -0.390625q0.25 -0.140625 0.578125 -0.140625q0.453125 0 0.78125 0.234375q0.34375 0.21875 0.515625 0.640625q0.171875 0.40625 0.171875 0.90625q0 0.53125 -0.1875 0.953125q-0.1875 0.421875 -0.5625 0.65625q-0.359375 0.21875 -0.75 0.21875q-0.296875 0 -0.53125 -0.125q-0.234375 -0.125 -0.375 -0.3125l0 1.6875l-0.59375 0zm0.53125 -3.03125q0 0.65625 0.265625 0.984375q0.28125 0.3125 0.65625 0.3125q0.390625 0 0.671875 -0.328125q0.28125 -0.328125 0.28125 -1.015625q0 -0.671875 -0.28125 -1.0q-0.265625 -0.328125 -0.640625 -0.328125q-0.375 0 -0.671875 0.359375q-0.28125 0.34375 -0.28125 1.015625zm5.420639 1.28125q-0.328125 0.265625 -0.625 0.390625q-0.296875 0.109375 -0.640625 0.109375q-0.578125 0 -0.890625 -0.28125q-0.296875 -0.28125 -0.296875 -0.703125q0 -0.25 0.109375 -0.453125q0.125 -0.21875 0.3125 -0.34375q0.1875 -0.140625 0.421875 -0.203125q0.171875 -0.046875 0.515625 -0.078125q0.71875 -0.09375 1.046875 -0.203125q0 -0.125 0 -0.15625q0 -0.359375 -0.15625 -0.5q-0.234375 -0.203125 -0.671875 -0.203125q-0.40625 0 -0.609375 0.15625q-0.203125 0.140625 -0.296875 0.5l-0.5625 -0.078125q0.078125 -0.359375 0.25 -0.578125q0.1875 -0.234375 0.515625 -0.359375q0.34375 -0.125 0.78125 -0.125q0.453125 0 0.71875 0.109375q0.28125 0.09375 0.40625 0.265625q0.140625 0.15625 0.1875 0.390625q0.03125 0.15625 0.03125 0.546875l0 0.765625q0 0.828125 0.03125 1.046875q0.046875 0.203125 0.15625 0.40625l-0.609375 0q-0.09375 -0.1875 -0.125 -0.421875zm-0.046875 -1.3125q-0.3125 0.125 -0.953125 0.21875q-0.359375 0.0625 -0.515625 0.125q-0.140625 0.0625 -0.234375 0.1875q-0.078125 0.125 -0.078125 0.28125q0 0.234375 0.171875 0.390625q0.1875 0.15625 0.53125 0.15625q0.328125 0 0.59375 -0.140625q0.265625 -0.15625 0.390625 -0.421875q0.09375 -0.1875 0.09375 -0.578125l0 -0.21875zm1.498764 1.734375l0 -3.453125l0.515625 0l0 0.53125q0.203125 -0.375 0.375 -0.484375q0.171875 -0.125 0.375 -0.125q0.296875 0 0.609375 0.1875l-0.203125 0.546875q-0.21875 -0.125 -0.4375 -0.125q-0.1875 0 -0.34375 0.125q-0.140625 0.109375 -0.21875 0.3125q-0.09375 0.3125 -0.09375 0.671875l0 1.8125l-0.578125 0zm4.4665833 -0.421875q-0.328125 0.265625 -0.625 0.390625q-0.296875 0.109375 -0.640625 0.109375q-0.578125 0 -0.890625 -0.28125q-0.296875 -0.28125 -0.296875 -0.703125q0 -0.25 0.109375 -0.453125q0.125 -0.21875 0.3125 -0.34375q0.1875 -0.140625 0.421875 -0.203125q0.171875 -0.046875 0.515625 -0.078125q0.71875 -0.09375 1.046875 -0.203125q0 -0.125 0 -0.15625q0 -0.359375 -0.15625 -0.5q-0.234375 -0.203125 -0.671875 -0.203125q-0.40625 0 -0.609375 0.15625q-0.203125 0.140625 -0.296875 0.5l-0.5625 -0.078125q0.078125 -0.359375 0.25 -0.578125q0.1875 -0.234375 0.515625 -0.359375q0.34375 -0.125 0.78125 -0.125q0.453125 0 0.71875 0.109375q0.28125 0.09375 0.40625 0.265625q0.140625 0.15625 0.1875 0.390625q0.03125 0.15625 0.03125 0.546875l0 0.765625q0 0.828125 0.03125 1.046875q0.046875 0.203125 0.15625 0.40625l-0.609375 0q-0.09375 -0.1875 -0.125 -0.421875zm-0.046875 -1.3125q-0.3125 0.125 -0.953125 0.21875q-0.359375 0.0625 -0.515625 0.125q-0.140625 0.0625 -0.234375 0.1875q-0.078125 0.125 -0.078125 0.28125q0 0.234375 0.171875 0.390625q0.1875 0.15625 0.53125 0.15625q0.328125 0 0.59375 -0.140625q0.265625 -0.15625 0.390625 -0.421875q0.09375 -0.1875 0.09375 -0.578125l0 -0.21875zm1.498764 1.734375l0 -3.453125l0.53125 0l0 0.484375q0.15625 -0.25 0.421875 -0.40625q0.28125 -0.15625 0.625 -0.15625q0.375 0 0.625 0.15625q0.25 0.15625 0.34375 0.453125q0.40625 -0.609375 1.0625 -0.609375q0.515625 0 0.78125 0.296875q0.28125 0.28125 0.28125 0.859375l0 2.375l-0.578125 0l0 -2.171875q0 -0.359375 -0.0625 -0.5q-0.046875 -0.15625 -0.203125 -0.25q-0.140625 -0.09375 -0.34375 -0.09375q-0.359375 0 -0.609375 0.25q-0.234375 0.234375 -0.234375 0.765625l0 2.0l-0.59375 0l0 -2.25q0 -0.375 -0.140625 -0.5625q-0.140625 -0.203125 -0.46875 -0.203125q-0.25 0 -0.453125 0.125q-0.203125 0.125 -0.296875 0.375q-0.09375 0.25 -0.09375 0.71875l0 1.796875l-0.59375 0zm5.3103333 -1.03125l0.578125 -0.09375q0.046875 0.34375 0.265625 0.53125q0.234375 0.1875 0.625 0.1875q0.40625 0 0.59375 -0.15625q0.203125 -0.171875 0.203125 -0.390625q0 -0.203125 -0.171875 -0.3125q-0.125 -0.078125 -0.59375 -0.203125q-0.640625 -0.15625 -0.890625 -0.265625q-0.25 -0.125 -0.390625 -0.328125q-0.125 -0.21875 -0.125 -0.46875q0 -0.234375 0.109375 -0.421875q0.109375 -0.203125 0.296875 -0.34375q0.125 -0.09375 0.359375 -0.15625q0.234375 -0.078125 0.515625 -0.078125q0.40625 0 0.703125 0.125q0.3125 0.109375 0.453125 0.3125q0.15625 0.203125 0.203125 0.53125l-0.5625 0.078125q-0.046875 -0.265625 -0.234375 -0.40625q-0.1875 -0.15625 -0.53125 -0.15625q-0.390625 0 -0.5625 0.140625q-0.171875 0.125 -0.171875 0.296875q0 0.125 0.0625 0.203125q0.078125 0.109375 0.21875 0.15625q0.09375 0.046875 0.53125 0.15625q0.609375 0.171875 0.859375 0.28125q0.25 0.09375 0.390625 0.296875q0.140625 0.203125 0.140625 0.5q0 0.296875 -0.171875 0.5625q-0.171875 0.25 -0.5 0.390625q-0.3125 0.140625 -0.71875 0.140625q-0.6875 0 -1.046875 -0.28125q-0.34375 -0.28125 -0.4375 -0.828125zm3.40625 -0.21875l0.578125 -0.078125q0.109375 0.484375 0.34375 0.703125q0.25 0.21875 0.59375 0.21875q0.40625 0 0.6875 -0.28125q0.296875 -0.28125 0.296875 -0.703125q0 -0.40625 -0.265625 -0.671875q-0.265625 -0.265625 -0.671875 -0.265625q-0.15625 0 -0.40625 0.078125l0.0625 -0.515625q0.0625 0 0.09375 0q0.375 0 0.671875 -0.1875q0.296875 -0.203125 0.296875 -0.609375q0 -0.3125 -0.21875 -0.515625q-0.21875 -0.21875 -0.5625 -0.21875q-0.34375 0 -0.578125 0.21875q-0.21875 0.203125 -0.28125 0.640625l-0.578125 -0.109375q0.09375 -0.59375 0.46875 -0.90625q0.390625 -0.328125 0.953125 -0.328125q0.390625 0 0.71875 0.171875q0.328125 0.15625 0.5 0.453125q0.1875 0.28125 0.1875 0.609375q0 0.3125 -0.171875 0.5625q-0.171875 0.25 -0.484375 0.40625q0.421875 0.09375 0.65625 0.40625q0.234375 0.296875 0.234375 0.765625q0 0.625 -0.46875 1.0625q-0.453125 0.421875 -1.140625 0.421875q-0.625 0 -1.046875 -0.359375q-0.40625 -0.375 -0.46875 -0.96875zm3.639389 -0.1875l0 -0.578125l1.7968712 0l0 0.578125l-1.7968712 0zm2.4353294 1.4375l0 -4.765625l0.59375 0l0 2.71875l1.375 -1.40625l0.765625 0l-1.328125 1.28125l1.453125 2.171875l-0.71875 0l-1.140625 -1.765625l-0.40625 0.390625l0 1.375l-0.59375 0zm5.6875 -1.109375l0.609375 0.078125q-0.140625 0.53125 -0.53125 0.828125q-0.390625 0.28125 -0.984375 0.28125q-0.765625 0 -1.203125 -0.46875q-0.4375 -0.46875 -0.4375 -1.3125q0 -0.859375 0.4375 -1.34375q0.453125 -0.484375 1.171875 -0.484375q0.6875 0 1.125 0.46875q0.4375 0.46875 0.4375 1.328125q0 0.046875 0 0.15625l-2.578125 0q0.03125 0.578125 0.3125 0.875q0.296875 0.296875 0.734375 0.296875q0.328125 0 0.546875 -0.15625q0.234375 -0.171875 0.359375 -0.546875zm-1.921875 -0.953125l1.9375 0q-0.046875 -0.4375 -0.21875 -0.640625q-0.28125 -0.34375 -0.734375 -0.34375q-0.40625 0 -0.6875 0.265625q-0.265625 0.265625 -0.296875 0.71875zm3.233139 3.390625l-0.0625 -0.546875q0.203125 0.046875 0.34375 0.046875q0.1875 0 0.296875 -0.0625q0.125 -0.0625 0.203125 -0.1875q0.046875 -0.078125 0.171875 -0.421875q0.015625 -0.0625 0.0625 -0.15625l-1.3125 -3.453125l0.625 0l0.71875 2.0q0.140625 0.375 0.25 0.796875q0.109375 -0.40625 0.25 -0.78125l0.734375 -2.015625l0.578125 0l-1.3125 3.515625q-0.203125 0.5625 -0.328125 0.78125q-0.15625 0.28125 -0.359375 0.421875q-0.203125 0.140625 -0.46875 0.140625q-0.171875 0 -0.390625 -0.078125z" fill-rule="nonzero"/><path fill="#f1c232" d="m31.244095 80.45407l50.645668 0l0 10.614174l-50.645668 0z" fill-rule="evenodd"/><path stroke="#000000" stroke-width="1.0" stroke-linejoin="round" stroke-linecap="butt" d="m31.244095 80.45407l50.645668 0l0 10.614174l-50.645668 0z" fill-rule="evenodd"/><path fill="#000000" d="m37.76858 89.48928l0 -4.78125l0.53125 0l0 0.453125q0.1875 -0.265625 0.421875 -0.390625q0.25 -0.140625 0.578125 -0.140625q0.453125 0 0.78125 0.234375q0.34375 0.21875 0.515625 0.640625q0.171875 0.40625 0.171875 0.90625q0 0.53125 -0.1875 0.953125q-0.1875 0.421875 -0.5625 0.65625q-0.359375 0.21875 -0.75 0.21875q-0.296875 0 -0.53125 -0.125q-0.234375 -0.125 -0.375 -0.3125l0 1.6875l-0.59375 0zm0.53125 -3.03125q0 0.65625 0.265625 0.984375q0.28125 0.3125 0.65625 0.3125q0.390625 0 0.671875 -0.328125q0.28125 -0.328125 0.28125 -1.015625q0 -0.671875 -0.28125 -1.0q-0.265625 -0.328125 -0.640625 -0.328125q-0.375 0 -0.671875 0.359375q-0.28125 0.34375 -0.28125 1.015625zm5.420639 1.28125q-0.328125 0.265625 -0.625 0.390625q-0.296875 0.109375 -0.640625 0.109375q-0.578125 0 -0.890625 -0.28125q-0.296875 -0.28125 -0.296875 -0.703125q0 -0.25 0.109375 -0.453125q0.125 -0.21875 0.3125 -0.34375q0.1875 -0.140625 0.421875 -0.203125q0.171875 -0.046875 0.515625 -0.078125q0.71875 -0.09375 1.046875 -0.203125q0 -0.125 0 -0.15625q0 -0.359375 -0.15625 -0.5q-0.234375 -0.203125 -0.671875 -0.203125q-0.40625 0 -0.609375 0.15625q-0.203125 0.140625 -0.296875 0.5l-0.5625 -0.078125q0.078125 -0.359375 0.25 -0.578125q0.1875 -0.234375 0.515625 -0.359375q0.34375 -0.125 0.78125 -0.125q0.453125 0 0.71875 0.109375q0.28125 0.09375 0.40625 0.265625q0.140625 0.15625 0.1875 0.390625q0.03125 0.15625 0.03125 0.546875l0 0.765625q0 0.828125 0.03125 1.046875q0.046875 0.203125 0.15625 0.40625l-0.609375 0q-0.09375 -0.1875 -0.125 -0.421875zm-0.046875 -1.3125q-0.3125 0.125 -0.953125 0.21875q-0.359375 0.0625 -0.515625 0.125q-0.140625 0.0625 -0.234375 0.1875q-0.078125 0.125 -0.078125 0.28125q0 0.234375 0.171875 0.390625q0.1875 0.15625 0.53125 0.15625q0.328125 0 0.59375 -0.140625q0.265625 -0.15625 0.390625 -0.421875q0.09375 -0.1875 0.09375 -0.578125l0 -0.21875zm1.498764 1.734375l0 -3.453125l0.515625 0l0 0.53125q0.203125 -0.375 0.375 -0.484375q0.171875 -0.125 0.375 -0.125q0.296875 0 0.609375 0.1875l-0.203125 0.546875q-0.21875 -0.125 -0.4375 -0.125q-0.1875 0 -0.34375 0.125q-0.140625 0.109375 -0.21875 0.3125q-0.09375 0.3125 -0.09375 0.671875l0 1.8125l-0.578125 0zm4.4665833 -0.421875q-0.328125 0.265625 -0.625 0.390625q-0.296875 0.109375 -0.640625 0.109375q-0.578125 0 -0.890625 -0.28125q-0.296875 -0.28125 -0.296875 -0.703125q0 -0.25 0.109375 -0.453125q0.125 -0.21875 0.3125 -0.34375q0.1875 -0.140625 0.421875 -0.203125q0.171875 -0.046875 0.515625 -0.078125q0.71875 -0.09375 1.046875 -0.203125q0 -0.125 0 -0.15625q0 -0.359375 -0.15625 -0.5q-0.234375 -0.203125 -0.671875 -0.203125q-0.40625 0 -0.609375 0.15625q-0.203125 0.140625 -0.296875 0.5l-0.5625 -0.078125q0.078125 -0.359375 0.25 -0.578125q0.1875 -0.234375 0.515625 -0.359375q0.34375 -0.125 0.78125 -0.125q0.453125 0 0.71875 0.109375q0.28125 0.09375 0.40625 0.265625q0.140625 0.15625 0.1875 0.390625q0.03125 0.15625 0.03125 0.546875l0 0.765625q0 0.828125 0.03125 1.046875q0.046875 0.203125 0.15625 0.40625l-0.609375 0q-0.09375 -0.1875 -0.125 -0.421875zm-0.046875 -1.3125q-0.3125 0.125 -0.953125 0.21875q-0.359375 0.0625 -0.515625 0.125q-0.140625 0.0625 -0.234375 0.1875q-0.078125 0.125 -0.078125 0.28125q0 0.234375 0.171875 0.390625q0.1875 0.15625 0.53125 0.15625q0.328125 0 0.59375 -0.140625q0.265625 -0.15625 0.390625 -0.421875q0.09375 -0.1875 0.09375 -0.578125l0 -0.21875zm1.498764 1.734375l0 -3.453125l0.53125 0l0 0.484375q0.15625 -0.25 0.421875 -0.40625q0.28125 -0.15625 0.625 -0.15625q0.375 0 0.625 0.15625q0.25 0.15625 0.34375 0.453125q0.40625 -0.609375 1.0625 -0.609375q0.515625 0 0.78125 0.296875q0.28125 0.28125 0.28125 0.859375l0 2.375l-0.578125 0l0 -2.171875q0 -0.359375 -0.0625 -0.5q-0.046875 -0.15625 -0.203125 -0.25q-0.140625 -0.09375 -0.34375 -0.09375q-0.359375 0 -0.609375 0.25q-0.234375 0.234375 -0.234375 0.765625l0 2.0l-0.59375 0l0 -2.25q0 -0.375 -0.140625 -0.5625q-0.140625 -0.203125 -0.46875 -0.203125q-0.25 0 -0.453125 0.125q-0.203125 0.125 -0.296875 0.375q-0.09375 0.25 -0.09375 0.71875l0 1.796875l-0.59375 0zm5.3103333 -1.03125l0.578125 -0.09375q0.046875 0.34375 0.265625 0.53125q0.234375 0.1875 0.625 0.1875q0.40625 0 0.59375 -0.15625q0.203125 -0.171875 0.203125 -0.390625q0 -0.203125 -0.171875 -0.3125q-0.125 -0.078125 -0.59375 -0.203125q-0.640625 -0.15625 -0.890625 -0.265625q-0.25 -0.125 -0.390625 -0.328125q-0.125 -0.21875 -0.125 -0.46875q0 -0.234375 0.109375 -0.421875q0.109375 -0.203125 0.296875 -0.34375q0.125 -0.09375 0.359375 -0.15625q0.234375 -0.078125 0.515625 -0.078125q0.40625 0 0.703125 0.125q0.3125 0.109375 0.453125 0.3125q0.15625 0.203125 0.203125 0.53125l-0.5625 0.078125q-0.046875 -0.265625 -0.234375 -0.40625q-0.1875 -0.15625 -0.53125 -0.15625q-0.390625 0 -0.5625 0.140625q-0.171875 0.125 -0.171875 0.296875q0 0.125 0.0625 0.203125q0.078125 0.109375 0.21875 0.15625q0.09375 0.046875 0.53125 0.15625q0.609375 0.171875 0.859375 0.28125q0.25 0.09375 0.390625 0.296875q0.140625 0.203125 0.140625 0.5q0 0.296875 -0.171875 0.5625q-0.171875 0.25 -0.5 0.390625q-0.3125 0.140625 -0.71875 0.140625q-0.6875 0 -1.046875 -0.28125q-0.34375 -0.28125 -0.4375 -0.828125zm5.28125 1.03125l0 -1.140625l-2.078125 0l0 -0.53125l2.1875 -3.09375l0.46875 0l0 3.09375l0.640625 0l0 0.53125l-0.640625 0l0 1.140625l-0.578125 0zm0 -1.671875l0 -2.15625l-1.5 2.15625l1.5 0zm1.764389 0.234375l0 -0.578125l1.7968712 0l0 0.578125l-1.7968712 0zm2.4353294 1.4375l0 -4.765625l0.59375 0l0 2.71875l1.375 -1.40625l0.765625 0l-1.328125 1.28125l1.453125 2.171875l-0.71875 0l-1.140625 -1.765625l-0.40625 0.390625l0 1.375l-0.59375 0zm5.6875 -1.109375l0.609375 0.078125q-0.140625 0.53125 -0.53125 0.828125q-0.390625 0.28125 -0.984375 0.28125q-0.765625 0 -1.203125 -0.46875q-0.4375 -0.46875 -0.4375 -1.3125q0 -0.859375 0.4375 -1.34375q0.453125 -0.484375 1.171875 -0.484375q0.6875 0 1.125 0.46875q0.4375 0.46875 0.4375 1.328125q0 0.046875 0 0.15625l-2.578125 0q0.03125 0.578125 0.3125 0.875q0.296875 0.296875 0.734375 0.296875q0.328125 0 0.546875 -0.15625q0.234375 -0.171875 0.359375 -0.546875zm-1.921875 -0.953125l1.9375 0q-0.046875 -0.4375 -0.21875 -0.640625q-0.28125 -0.34375 -0.734375 -0.34375q-0.40625 0 -0.6875 0.265625q-0.265625 0.265625 -0.296875 0.71875zm3.233139 3.390625l-0.0625 -0.546875q0.203125 0.046875 0.34375 0.046875q0.1875 0 0.296875 -0.0625q0.125 -0.0625 0.203125 -0.1875q0.046875 -0.078125 0.171875 -0.421875q0.015625 -0.0625 0.0625 -0.15625l-1.3125 -3.453125l0.625 0l0.71875 2.0q0.140625 0.375 0.25 0.796875q0.109375 -0.40625 0.25 -0.78125l0.734375 -2.015625l0.578125 0l-1.3125 3.515625q-0.203125 0.5625 -0.328125 0.78125q-0.15625 0.28125 -0.359375 0.421875q-0.203125 0.140625 -0.46875 0.140625q-0.171875 0 -0.390625 -0.078125z" fill-rule="nonzero"/><path fill="#3c78d8" d="m31.244095 91.068245l50.645668 0l0 10.614166l-50.645668 0z" fill-rule="evenodd"/><path stroke="#000000" stroke-width="1.0" stroke-linejoin="round" stroke-linecap="butt" d="m31.244095 91.068245l50.645668 0l0 10.614166l-50.645668 0z" fill-rule="evenodd"/><path fill="#000000" d="m37.76858 100.103455l0 -4.78125l0.53125 0l0 0.453125q0.1875 -0.265625 0.421875 -0.390625q0.25 -0.140625 0.578125 -0.140625q0.453125 0 0.78125 0.234375q0.34375 0.21875 0.515625 0.640625q0.171875 0.40625 0.171875 0.90625q0 0.53125 -0.1875 0.953125q-0.1875 0.421875 -0.5625 0.65625q-0.359375 0.21875 -0.75 0.21875q-0.296875 0 -0.53125 -0.125q-0.234375 -0.125 -0.375 -0.3125l0 1.6875l-0.59375 0zm0.53125 -3.03125q0 0.65625 0.265625 0.984375q0.28125 0.3125 0.65625 0.3125q0.390625 0 0.671875 -0.328125q0.28125 -0.328125 0.28125 -1.015625q0 -0.671875 -0.28125 -1.0q-0.265625 -0.328125 -0.640625 -0.328125q-0.375 0 -0.671875 0.359375q-0.28125 0.34375 -0.28125 1.015625zm5.420639 1.28125q-0.328125 0.265625 -0.625 0.390625q-0.296875 0.109375 -0.640625 0.109375q-0.578125 0 -0.890625 -0.28125q-0.296875 -0.28125 -0.296875 -0.703125q0 -0.25 0.109375 -0.453125q0.125 -0.21875 0.3125 -0.34375q0.1875 -0.140625 0.421875 -0.203125q0.171875 -0.046875 0.515625 -0.078125q0.71875 -0.09375 1.046875 -0.203125q0 -0.125 0 -0.15625q0 -0.359375 -0.15625 -0.5q-0.234375 -0.203125 -0.671875 -0.203125q-0.40625 0 -0.609375 0.15625q-0.203125 0.140625 -0.296875 0.5l-0.5625 -0.078125q0.078125 -0.359375 0.25 -0.578125q0.1875 -0.234375 0.515625 -0.359375q0.34375 -0.125 0.78125 -0.125q0.453125 0 0.71875 0.109375q0.28125 0.09375 0.40625 0.265625q0.140625 0.15625 0.1875 0.390625q0.03125 0.15625 0.03125 0.546875l0 0.765625q0 0.828125 0.03125 1.046875q0.046875 0.203125 0.15625 0.40625l-0.609375 0q-0.09375 -0.1875 -0.125 -0.421875zm-0.046875 -1.3125q-0.3125 0.125 -0.953125 0.21875q-0.359375 0.0625 -0.515625 0.125q-0.140625 0.0625 -0.234375 0.1875q-0.078125 0.125 -0.078125 0.28125q0 0.234375 0.171875 0.390625q0.1875 0.15625 0.53125 0.15625q0.328125 0 0.59375 -0.140625q0.265625 -0.15625 0.390625 -0.421875q0.09375 -0.1875 0.09375 -0.578125l0 -0.21875zm1.498764 1.734375l0 -3.453125l0.515625 0l0 0.53125q0.203125 -0.375 0.375 -0.484375q0.171875 -0.125 0.375 -0.125q0.296875 0 0.609375 0.1875l-0.203125 0.546875q-0.21875 -0.125 -0.4375 -0.125q-0.1875 0 -0.34375 0.125q-0.140625 0.109375 -0.21875 0.3125q-0.09375 0.3125 -0.09375 0.671875l0 1.8125l-0.578125 0zm4.4665833 -0.421875q-0.328125 0.265625 -0.625 0.390625q-0.296875 0.109375 -0.640625 0.109375q-0.578125 0 -0.890625 -0.28125q-0.296875 -0.28125 -0.296875 -0.703125q0 -0.25 0.109375 -0.453125q0.125 -0.21875 0.3125 -0.34375q0.1875 -0.140625 0.421875 -0.203125q0.171875 -0.046875 0.515625 -0.078125q0.71875 -0.09375 1.046875 -0.203125q0 -0.125 0 -0.15625q0 -0.359375 -0.15625 -0.5q-0.234375 -0.203125 -0.671875 -0.203125q-0.40625 0 -0.609375 0.15625q-0.203125 0.140625 -0.296875 0.5l-0.5625 -0.078125q0.078125 -0.359375 0.25 -0.578125q0.1875 -0.234375 0.515625 -0.359375q0.34375 -0.125 0.78125 -0.125q0.453125 0 0.71875 0.109375q0.28125 0.09375 0.40625 0.265625q0.140625 0.15625 0.1875 0.390625q0.03125 0.15625 0.03125 0.546875l0 0.765625q0 0.828125 0.03125 1.046875q0.046875 0.203125 0.15625 0.40625l-0.609375 0q-0.09375 -0.1875 -0.125 -0.421875zm-0.046875 -1.3125q-0.3125 0.125 -0.953125 0.21875q-0.359375 0.0625 -0.515625 0.125q-0.140625 0.0625 -0.234375 0.1875q-0.078125 0.125 -0.078125 0.28125q0 0.234375 0.171875 0.390625q0.1875 0.15625 0.53125 0.15625q0.328125 0 0.59375 -0.140625q0.265625 -0.15625 0.390625 -0.421875q0.09375 -0.1875 0.09375 -0.578125l0 -0.21875zm1.498764 1.734375l0 -3.453125l0.53125 0l0 0.484375q0.15625 -0.25 0.421875 -0.40625q0.28125 -0.15625 0.625 -0.15625q0.375 0 0.625 0.15625q0.25 0.15625 0.34375 0.453125q0.40625 -0.609375 1.0625 -0.609375q0.515625 0 0.78125 0.296875q0.28125 0.28125 0.28125 0.859375l0 2.375l-0.578125 0l0 -2.171875q0 -0.359375 -0.0625 -0.5q-0.046875 -0.15625 -0.203125 -0.25q-0.140625 -0.09375 -0.34375 -0.09375q-0.359375 0 -0.609375 0.25q-0.234375 0.234375 -0.234375 0.765625l0 2.0l-0.59375 0l0 -2.25q0 -0.375 -0.140625 -0.5625q-0.140625 -0.203125 -0.46875 -0.203125q-0.25 0 -0.453125 0.125q-0.203125 0.125 -0.296875 0.375q-0.09375 0.25 -0.09375 0.71875l0 1.796875l-0.59375 0zm5.3103333 -1.03125l0.578125 -0.09375q0.046875 0.34375 0.265625 0.53125q0.234375 0.1875 0.625 0.1875q0.40625 0 0.59375 -0.15625q0.203125 -0.171875 0.203125 -0.390625q0 -0.203125 -0.171875 -0.3125q-0.125 -0.078125 -0.59375 -0.203125q-0.640625 -0.15625 -0.890625 -0.265625q-0.25 -0.125 -0.390625 -0.328125q-0.125 -0.21875 -0.125 -0.46875q0 -0.234375 0.109375 -0.421875q0.109375 -0.203125 0.296875 -0.34375q0.125 -0.09375 0.359375 -0.15625q0.234375 -0.078125 0.515625 -0.078125q0.40625 0 0.703125 0.125q0.3125 0.109375 0.453125 0.3125q0.15625 0.203125 0.203125 0.53125l-0.5625 0.078125q-0.046875 -0.265625 -0.234375 -0.40625q-0.1875 -0.15625 -0.53125 -0.15625q-0.390625 0 -0.5625 0.140625q-0.171875 0.125 -0.171875 0.296875q0 0.125 0.0625 0.203125q0.078125 0.109375 0.21875 0.15625q0.09375 0.046875 0.53125 0.15625q0.609375 0.171875 0.859375 0.28125q0.25 0.09375 0.390625 0.296875q0.140625 0.203125 0.140625 0.5q0 0.296875 -0.171875 0.5625q-0.171875 0.25 -0.5 0.390625q-0.3125 0.140625 -0.71875 0.140625q-0.6875 0 -1.046875 -0.28125q-0.34375 -0.28125 -0.4375 -0.828125zm3.40625 -0.21875l0.609375 -0.046875q0.0625 0.453125 0.3125 0.671875q0.25 0.21875 0.609375 0.21875q0.421875 0 0.703125 -0.3125q0.296875 -0.3125 0.296875 -0.84375q0 -0.5 -0.28125 -0.78125q-0.28125 -0.296875 -0.734375 -0.296875q-0.28125 0 -0.515625 0.125q-0.21875 0.125 -0.359375 0.328125l-0.546875 -0.0625l0.46875 -2.453125l2.375 0l0 0.5625l-1.90625 0l-0.265625 1.28125q0.4375 -0.296875 0.90625 -0.296875q0.625 0 1.046875 0.4375q0.4375 0.421875 0.4375 1.109375q0 0.640625 -0.375 1.109375q-0.46875 0.578125 -1.25 0.578125q-0.65625 0 -1.078125 -0.359375q-0.40625 -0.359375 -0.453125 -0.96875zm3.639389 -0.1875l0 -0.578125l1.7968712 0l0 0.578125l-1.7968712 0zm2.4353294 1.4375l0 -4.765625l0.59375 0l0 2.71875l1.375 -1.40625l0.765625 0l-1.328125 1.28125l1.453125 2.171875l-0.71875 0l-1.140625 -1.765625l-0.40625 0.390625l0 1.375l-0.59375 0zm5.6875 -1.109375l0.609375 0.078125q-0.140625 0.53125 -0.53125 0.828125q-0.390625 0.28125 -0.984375 0.28125q-0.765625 0 -1.203125 -0.46875q-0.4375 -0.46875 -0.4375 -1.3125q0 -0.859375 0.4375 -1.34375q0.453125 -0.484375 1.171875 -0.484375q0.6875 0 1.125 0.46875q0.4375 0.46875 0.4375 1.328125q0 0.046875 0 0.15625l-2.578125 0q0.03125 0.578125 0.3125 0.875q0.296875 0.296875 0.734375 0.296875q0.328125 0 0.546875 -0.15625q0.234375 -0.171875 0.359375 -0.546875zm-1.921875 -0.953125l1.9375 0q-0.046875 -0.4375 -0.21875 -0.640625q-0.28125 -0.34375 -0.734375 -0.34375q-0.40625 0 -0.6875 0.265625q-0.265625 0.265625 -0.296875 0.71875zm3.233139 3.390625l-0.0625 -0.546875q0.203125 0.046875 0.34375 0.046875q0.1875 0 0.296875 -0.0625q0.125 -0.0625 0.203125 -0.1875q0.046875 -0.078125 0.171875 -0.421875q0.015625 -0.0625 0.0625 -0.15625l-1.3125 -3.453125l0.625 0l0.71875 2.0q0.140625 0.375 0.25 0.796875q0.109375 -0.40625 0.25 -0.78125l0.734375 -2.015625l0.578125 0l-1.3125 3.515625q-0.203125 0.5625 -0.328125 0.78125q-0.15625 0.28125 -0.359375 0.421875q-0.203125 0.140625 -0.46875 0.140625q-0.171875 0 -0.390625 -0.078125z" fill-rule="nonzero"/><path fill="#000000" fill-opacity="0.0" d="m81.88976 75.14698l21.952759 91.43307" fill-rule="evenodd"/><path stroke="#000000" stroke-width="1.0" stroke-linejoin="round" stroke-linecap="butt" d="m81.88976 75.14698l21.152664 88.100685" fill-rule="evenodd"/><path fill="#000000" stroke="#000000" stroke-width="1.0" stroke-linecap="butt" d="m103.04243 163.24767l-1.3560562 -0.8309479l1.8148499 2.7418365l0.37216187 -3.2669373z" fill-rule="evenodd"/><path fill="#000000" fill-opacity="0.0" d="m81.88976 85.761154l21.952759 117.32283" fill-rule="evenodd"/><path stroke="#000000" stroke-width="1.0" stroke-linejoin="round" stroke-linecap="butt" d="m81.88976 85.761154l21.322433 113.95421" fill-rule="evenodd"/><path fill="#000000" stroke="#000000" stroke-width="1.0" stroke-linecap="butt" d="m103.212204 199.71536l-1.312233 -0.8985596l1.6736755 2.8302307l0.537117 -3.2438965z" fill-rule="evenodd"/><path fill="#f1c232" d="m103.83202 190.15486l50.645668 0l0 25.858261l-50.645668 0z" fill-rule="evenodd"/><path stroke="#000000" stroke-width="1.0" stroke-linejoin="round" stroke-linecap="butt" d="m103.83202 190.15486l50.645668 0l0 25.858261l-50.645668 0z" fill-rule="evenodd"/><path fill="#000000" d="m105.26952 196.55486l0 -3.453125l0.515625 0l0 0.53125q0.203125 -0.375 0.375 -0.484375q0.171875 -0.125 0.375 -0.125q0.296875 0 0.609375 0.1875l-0.203125 0.546875q-0.21875 -0.125 -0.4375 -0.125q-0.1875 0 -0.34375 0.125q-0.140625 0.109375 -0.21875 0.3125q-0.09375 0.3125 -0.09375 0.671875l0 1.8125l-0.578125 0zm4.5759583 -1.109375l0.609375 0.078125q-0.140625 0.53125 -0.53125 0.828125q-0.390625 0.28125 -0.984375 0.28125q-0.765625 0 -1.203125 -0.46875q-0.4375 -0.46875 -0.4375 -1.3125q0 -0.859375 0.4375 -1.34375q0.453125 -0.484375 1.171875 -0.484375q0.6875 0 1.125 0.46875q0.4375 0.46875 0.4375 1.328125q0 0.046875 0 0.15625l-2.578125 0q0.03125 0.578125 0.3125 0.875q0.296875 0.296875 0.734375 0.296875q0.328125 0 0.546875 -0.15625q0.234375 -0.171875 0.359375 -0.546875zm-1.921875 -0.953125l1.9375 0q-0.046875 -0.4375 -0.21875 -0.640625q-0.28125 -0.34375 -0.734375 -0.34375q-0.40625 0 -0.6875 0.265625q-0.265625 0.265625 -0.296875 0.71875zm3.030014 1.03125l0.578125 -0.09375q0.046875 0.34375 0.265625 0.53125q0.234375 0.1875 0.625 0.1875q0.40625 0 0.59375 -0.15625q0.203125 -0.171875 0.203125 -0.390625q0 -0.203125 -0.171875 -0.3125q-0.125 -0.078125 -0.59375 -0.203125q-0.640625 -0.15625 -0.890625 -0.265625q-0.25 -0.125 -0.390625 -0.328125q-0.125 -0.21875 -0.125 -0.46875q0 -0.234375 0.109375 -0.421875q0.109375 -0.203125 0.296875 -0.34375q0.125 -0.09375 0.359375 -0.15625q0.234375 -0.078125 0.515625 -0.078125q0.40625 0 0.703125 0.125q0.3125 0.109375 0.453125 0.3125q0.15625 0.203125 0.203125 0.53125l-0.5625 0.078125q-0.046875 -0.265625 -0.234375 -0.40625q-0.1875 -0.15625 -0.53125 -0.15625q-0.390625 0 -0.5625 0.140625q-0.171875 0.125 -0.171875 0.296875q0 0.125 0.0625 0.203125q0.078125 0.109375 0.21875 0.15625q0.09375 0.046875 0.53125 0.15625q0.609375 0.171875 0.859375 0.28125q0.25 0.09375 0.390625 0.296875q0.140625 0.203125 0.140625 0.5q0 0.296875 -0.171875 0.5625q-0.171875 0.25 -0.5 0.390625q-0.3125 0.140625 -0.71875 0.140625q-0.6875 0 -1.046875 -0.28125q-0.34375 -0.28125 -0.4375 -0.828125zm5.828125 1.03125l0 -0.5q-0.40625 0.578125 -1.09375 0.578125q-0.3125 0 -0.578125 -0.109375q-0.265625 -0.125 -0.390625 -0.296875q-0.125 -0.1875 -0.171875 -0.4375q-0.046875 -0.171875 -0.046875 -0.546875l0 -2.140625l0.59375 0l0 1.921875q0 0.453125 0.03125 0.609375q0.0625 0.234375 0.234375 0.375q0.171875 0.125 0.4375 0.125q0.265625 0 0.5 -0.140625q0.234375 -0.140625 0.328125 -0.359375q0.09375 -0.234375 0.09375 -0.6875l0 -1.84375l0.578125 0l0 3.453125l-0.515625 0zm1.420639 0l0 -4.765625l0.59375 0l0 4.765625l-0.59375 0zm2.7756805 -0.515625l0.078125 0.515625q-0.25 0.046875 -0.4375 0.046875q-0.3125 0 -0.5 -0.09375q-0.171875 -0.109375 -0.25 -0.265625q-0.0625 -0.171875 -0.0625 -0.703125l0 -1.984375l-0.4375 0l0 -0.453125l0.4375 0l0 -0.859375l0.578125 -0.34375l0 1.203125l0.59375 0l0 0.453125l-0.59375 0l0 2.015625q0 0.25 0.03125 0.328125q0.03125 0.078125 0.09375 0.125q0.078125 0.03125 0.203125 0.03125q0.109375 0 0.265625 -0.015625zm0.33369446 -0.515625l0.578125 -0.09375q0.046875 0.34375 0.265625 0.53125q0.234375 0.1875 0.625 0.1875q0.40625 0 0.59375 -0.15625q0.203125 -0.171875 0.203125 -0.390625q0 -0.203125 -0.171875 -0.3125q-0.125 -0.078125 -0.59375 -0.203125q-0.640625 -0.15625 -0.890625 -0.265625q-0.25 -0.125 -0.390625 -0.328125q-0.125 -0.21875 -0.125 -0.46875q0 -0.234375 0.109375 -0.421875q0.109375 -0.203125 0.296875 -0.34375q0.125 -0.09375 0.359375 -0.15625q0.234375 -0.078125 0.515625 -0.078125q0.40625 0 0.703125 0.125q0.3125 0.109375 0.453125 0.3125q0.15625 0.203125 0.203125 0.53125l-0.5625 0.078125q-0.046875 -0.265625 -0.234375 -0.40625q-0.1875 -0.15625 -0.53125 -0.15625q-0.390625 0 -0.5625 0.140625q-0.171875 0.125 -0.171875 0.296875q0 0.125 0.0625 0.203125q0.078125 0.109375 0.21875 0.15625q0.09375 0.046875 0.53125 0.15625q0.609375 0.171875 0.859375 0.28125q0.25 0.09375 0.390625 0.296875q0.140625 0.203125 0.140625 0.5q0 0.296875 -0.171875 0.5625q-0.171875 0.25 -0.5 0.390625q-0.3125 0.140625 -0.71875 0.140625q-0.6875 0 -1.046875 -0.28125q-0.34375 -0.28125 -0.4375 -0.828125z" fill-rule="nonzero"/><path fill="#000000" fill-opacity="0.0" d="m31.664042 106.00787l35.11811 0l0 8.09449l-35.11811 0z" fill-rule="evenodd"/><path fill="#000000" d="m41.445293 112.407875l0 -0.671875l0.65625 0l0 0.671875l-0.65625 0zm2.21875 0l0 -0.671875l0.65625 0l0 0.671875l-0.65625 0zm2.21875 0l0 -0.671875l0.65625 0l0 0.671875l-0.65625 0z" fill-rule="nonzero"/><path fill="#000000" fill-opacity="0.0" d="m81.88976 96.37533l14.110237 119.62205" fill-rule="evenodd"/><path stroke="#000000" stroke-width="1.0" stroke-linejoin="round" stroke-linecap="butt" d="m81.88976 96.37533l14.110237 119.62205" fill-rule="evenodd"/><path fill="#cc0000" d="m103.83202 142.97375l50.645668 0l0 47.181107l-50.645668 0z" fill-rule="evenodd"/><path stroke="#000000" stroke-width="1.0" stroke-linejoin="round" stroke-linecap="butt" d="m103.83202 142.97375l50.645668 0l0 47.181107l-50.645668 0z" fill-rule="evenodd"/><path fill="#000000" d="m105.26952 149.37375l0 -3.453125l0.515625 0l0 0.53125q0.203125 -0.375 0.375 -0.484375q0.171875 -0.125 0.375 -0.125q0.296875 0 0.609375 0.1875l-0.203125 0.546875q-0.21875 -0.125 -0.4375 -0.125q-0.1875 0 -0.34375 0.125q-0.140625 0.109375 -0.21875 0.3125q-0.09375 0.3125 -0.09375 0.671875l0 1.8125l-0.578125 0zm4.5759583 -1.109375l0.609375 0.078125q-0.140625 0.53125 -0.53125 0.828125q-0.390625 0.28125 -0.984375 0.28125q-0.765625 0 -1.203125 -0.46875q-0.4375 -0.46875 -0.4375 -1.3125q0 -0.859375 0.4375 -1.34375q0.453125 -0.484375 1.171875 -0.484375q0.6875 0 1.125 0.46875q0.4375 0.46875 0.4375 1.328125q0 0.046875 0 0.15625l-2.578125 0q0.03125 0.578125 0.3125 0.875q0.296875 0.296875 0.734375 0.296875q0.328125 0 0.546875 -0.15625q0.234375 -0.171875 0.359375 -0.546875zm-1.921875 -0.953125l1.9375 0q-0.046875 -0.4375 -0.21875 -0.640625q-0.28125 -0.34375 -0.734375 -0.34375q-0.40625 0 -0.6875 0.265625q-0.265625 0.265625 -0.296875 0.71875zm3.030014 1.03125l0.578125 -0.09375q0.046875 0.34375 0.265625 0.53125q0.234375 0.1875 0.625 0.1875q0.40625 0 0.59375 -0.15625q0.203125 -0.171875 0.203125 -0.390625q0 -0.203125 -0.171875 -0.3125q-0.125 -0.078125 -0.59375 -0.203125q-0.640625 -0.15625 -0.890625 -0.265625q-0.25 -0.125 -0.390625 -0.328125q-0.125 -0.21875 -0.125 -0.46875q0 -0.234375 0.109375 -0.421875q0.109375 -0.203125 0.296875 -0.34375q0.125 -0.09375 0.359375 -0.15625q0.234375 -0.078125 0.515625 -0.078125q0.40625 0 0.703125 0.125q0.3125 0.109375 0.453125 0.3125q0.15625 0.203125 0.203125 0.53125l-0.5625 0.078125q-0.046875 -0.265625 -0.234375 -0.40625q-0.1875 -0.15625 -0.53125 -0.15625q-0.390625 0 -0.5625 0.140625q-0.171875 0.125 -0.171875 0.296875q0 0.125 0.0625 0.203125q0.078125 0.109375 0.21875 0.15625q0.09375 0.046875 0.53125 0.15625q0.609375 0.171875 0.859375 0.28125q0.25 0.09375 0.390625 0.296875q0.140625 0.203125 0.140625 0.5q0 0.296875 -0.171875 0.5625q-0.171875 0.25 -0.5 0.390625q-0.3125 0.140625 -0.71875 0.140625q-0.6875 0 -1.046875 -0.28125q-0.34375 -0.28125 -0.4375 -0.828125zm5.828125 1.03125l0 -0.5q-0.40625 0.578125 -1.09375 0.578125q-0.3125 0 -0.578125 -0.109375q-0.265625 -0.125 -0.390625 -0.296875q-0.125 -0.1875 -0.171875 -0.4375q-0.046875 -0.171875 -0.046875 -0.546875l0 -2.140625l0.59375 0l0 1.921875q0 0.453125 0.03125 0.609375q0.0625 0.234375 0.234375 0.375q0.171875 0.125 0.4375 0.125q0.265625 0 0.5 -0.140625q0.234375 -0.140625 0.328125 -0.359375q0.09375 -0.234375 0.09375 -0.6875l0 -1.84375l0.578125 0l0 3.453125l-0.515625 0zm1.420639 0l0 -4.765625l0.59375 0l0 4.765625l-0.59375 0zm2.7756805 -0.515625l0.078125 0.515625q-0.25 0.046875 -0.4375 0.046875q-0.3125 0 -0.5 -0.09375q-0.171875 -0.109375 -0.25 -0.265625q-0.0625 -0.171875 -0.0625 -0.703125l0 -1.984375l-0.4375 0l0 -0.453125l0.4375 0l0 -0.859375l0.578125 -0.34375l0 1.203125l0.59375 0l0 0.453125l-0.59375 0l0 2.015625q0 0.25 0.03125 0.328125q0.03125 0.078125 0.09375 0.125q0.078125 0.03125 0.203125 0.03125q0.109375 0 0.265625 -0.015625zm0.33369446 -0.515625l0.578125 -0.09375q0.046875 0.34375 0.265625 0.53125q0.234375 0.1875 0.625 0.1875q0.40625 0 0.59375 -0.15625q0.203125 -0.171875 0.203125 -0.390625q0 -0.203125 -0.171875 -0.3125q-0.125 -0.078125 -0.59375 -0.203125q-0.640625 -0.15625 -0.890625 -0.265625q-0.25 -0.125 -0.390625 -0.328125q-0.125 -0.21875 -0.125 -0.46875q0 -0.234375 0.109375 -0.421875q0.109375 -0.203125 0.296875 -0.34375q0.125 -0.09375 0.359375 -0.15625q0.234375 -0.078125 0.515625 -0.078125q0.40625 0 0.703125 0.125q0.3125 0.109375 0.453125 0.3125q0.15625 0.203125 0.203125 0.53125l-0.5625 0.078125q-0.046875 -0.265625 -0.234375 -0.40625q-0.1875 -0.15625 -0.53125 -0.15625q-0.390625 0 -0.5625 0.140625q-0.171875 0.125 -0.171875 0.296875q0 0.125 0.0625 0.203125q0.078125 0.109375 0.21875 0.15625q0.09375 0.046875 0.53125 0.15625q0.609375 0.171875 0.859375 0.28125q0.25 0.09375 0.390625 0.296875q0.140625 0.203125 0.140625 0.5q0 0.296875 -0.171875 0.5625q-0.171875 0.25 -0.5 0.390625q-0.3125 0.140625 -0.71875 0.140625q-0.6875 0 -1.046875 -0.28125q-0.34375 -0.28125 -0.4375 -0.828125z" fill-rule="nonzero"/></g></svg>