<svg version="1.1" viewBox="0.0 0.0 192.0 240.0" fill="none" stroke="none" stroke-linecap="square" stroke-miterlimit="10" xmlns:xlink="http://www.w3.org/1999/xlink" xmlns="http://www.w3.org/2000/svg"><clipPath id="p.0"><path d="m0 0l192.0 0l0 240.0l-192.0 0l0 -240.0z" clip-rule="nonzero"/></clipPath><g clip-path="url(#p.0)"><path fill="#000000" fill-opacity="0.0" d="m0 0l192.0 0l0 240.0l-192.0 0z" fill-rule="evenodd"/><g filter="url(#shadowFilter-p.1)"><use xlink:href="#p.1" transform="matrix(1.0 0.0 0.0 1.0 0.0 2.0)"/></g><defs><filter id="shadowFilter-p.1" filterUnits="userSpaceOnUse"><feGaussianBlur in="SourceAlpha" stdDeviation="2.0" result="blur"/><feComponentTransfer in="blur" color-interpolation-filters="sRGB"><feFuncR type="linear" slope="0" intercept="0.0"/><feFuncG type="linear" slope="0" intercept="0.0"/><feFuncB type="linear" slope="0" intercept="0.0"/><feFuncA type="linear" slope="0.5" intercept="0"/></feComponentTransfer></filter></defs><g id="p.1"><path fill="#d9d9d9" d="m8.0 8.0l178.55118 0l0 226.55118l-178.55118 0z" fill-rule="evenodd"/><path stroke="#000000" stroke-width="1.0" stroke-linejoin="round" stroke-linecap="butt" d="m8.0 8.0l178.55118 0l0 226.55118l-178.55118 0z" fill-rule="evenodd"/></g><path fill="#ead1dc" d="m20.596369 21.617836l120.00001 0l0 168.0l-120.00001 0z" fill-rule="evenodd"/><path stroke="#000000" stroke-width="1.0" stroke-linejoin="round" stroke-linecap="butt" d="m20.596369 21.617836l120.00001 0l0 168.0l-120.00001 0z" fill-rule="evenodd"/><path fill="#fff2cc" d="m36.59637 37.617836l120.0 0l0 168.0l-120.0 0z" fill-rule="evenodd"/><path stroke="#000000" stroke-width="1.0" stroke-linejoin="round" stroke-linecap="butt" d="m36.59637 37.617836l120.0 0l0 168.0l-120.0 0z" fill-rule="evenodd"/><path fill="#000000" fill-opacity="0.0" d="m36.595802 37.6168l84.661415 0l0 14.551182l-84.661415 0z" fill-rule="evenodd"/><path fill="#000000" d="m41.627052 48.82805q0 0.21875 0.140625 0.390625q0.140625 0.15625 0.421875 0.15625q0.28125 0 0.421875 -0.15625q0.15625 -0.15625 0.15625 -0.390625q0 -0.234375 -0.15625 -0.390625q-0.140625 -0.171875 -0.421875 -0.171875q-0.28125 0 -0.421875 0.171875q-0.140625 0.15625 -0.140625 0.390625zm1.515625 0q0 0.21875 0.140625 0.390625q0.140625 0.15625 0.421875 0.15625q0.28125 0 0.421875 -0.15625q0.15625 -0.15625 0.15625 -0.390625q0 -0.234375 -0.15625 -0.390625q-0.140625 -0.171875 -0.421875 -0.171875q-0.28125 0 -0.421875 0.171875q-0.140625 0.15625 -0.140625 0.390625zm1.46875 0q0 0.21875 0.140625 0.390625q0.140625 0.15625 0.421875 0.15625q0.28125 0 0.421875 -0.15625q0.15625 -0.15625 0.15625 -0.390625q0 -0.234375 -0.15625 -0.390625q-0.140625 -0.171875 -0.421875 -0.171875q-0.28125 0 -0.421875 0.171875q-0.140625 0.15625 -0.140625 0.390625zm5.0351562 -1.703125l0 -1.34375q0 -0.53125 -0.125 -0.953125q-0.125 -0.421875 -0.359375 -0.71875q-0.234375 -0.28125 -0.578125 -0.421875q-0.34375 -0.15625 -0.78125 -0.15625q-0.4375 0 -0.78125 0.15625q-0.328125 0.140625 -0.5625 0.421875q-0.25 0.296875 -0.375 0.71875q-0.125 0.421875 -0.125 0.953125l0 1.34375q0 0.53125 0.125 0.953125q0.125 0.421875 0.375 0.703125q0.234375 0.296875 0.578125 0.453125q0.34375 0.140625 0.78125 0.140625q0.4375 0 0.765625 -0.140625q0.34375 -0.15625 0.578125 -0.453125q0.234375 -0.28125 0.359375 -0.703125q0.125 -0.421875 0.125 -0.953125zm-2.953125 -0.15625q0 -0.09375 0 -0.1875q0 -0.109375 0 -0.203125l0 -0.953125q0 -0.390625 0.078125 -0.6875q0.078125 -0.3125 0.25 -0.5q0.125 -0.15625 0.328125 -0.234375q0.203125 -0.078125 0.453125 -0.078125q0.25 0 0.4375 0.078125q0.203125 0.0625 0.34375 0.21875q0.125 0.140625 0.203125 0.359375q0.09375 0.21875 0.125 0.5l-2.21875 1.6875zm2.234375 0.296875q0 0.421875 -0.09375 0.734375q-0.078125 0.3125 -0.265625 0.5q-0.125 0.140625 -0.328125 0.21875q-0.1875 0.0625 -0.421875 0.0625q-0.234375 0 -0.421875 -0.0625q-0.1875 -0.0625 -0.328125 -0.203125q-0.140625 -0.140625 -0.234375 -0.359375q-0.09375 -0.21875 -0.125 -0.5l2.21875 -1.6875q0 0.109375 0 0.28125q0 0.15625 0 0.21875l0 0.796875zm5.5195312 -0.140625l0 -1.34375q0 -0.53125 -0.125 -0.953125q-0.125 -0.421875 -0.359375 -0.71875q-0.234375 -0.28125 -0.578125 -0.421875q-0.34375 -0.15625 -0.78125 -0.15625q-0.4375 0 -0.78125 0.15625q-0.328125 0.140625 -0.5625 0.421875q-0.25 0.296875 -0.375 0.71875q-0.125 0.421875 -0.125 0.953125l0 1.34375q0 0.53125 0.125 0.953125q0.125 0.421875 0.375 0.703125q0.234375 0.296875 0.578125 0.453125q0.34375 0.140625 0.78125 0.140625q0.4375 0 0.765625 -0.140625q0.34375 -0.15625 0.578125 -0.453125q0.234375 -0.28125 0.359375 -0.703125q0.125 -0.421875 0.125 -0.953125zm-2.953125 -0.15625q0 -0.09375 0 -0.1875q0 -0.109375 0 -0.203125l0 -0.953125q0 -0.390625 0.078125 -0.6875q0.078125 -0.3125 0.25 -0.5q0.125 -0.15625 0.328125 -0.234375q0.203125 -0.078125 0.453125 -0.078125q0.25 0 0.4375 0.078125q0.203125 0.0625 0.34375 0.21875q0.125 0.140625 0.203125 0.359375q0.09375 0.21875 0.125 0.5l-2.21875 1.6875zm2.234375 0.296875q0 0.421875 -0.09375 0.734375q-0.078125 0.3125 -0.265625 0.5q-0.125 0.140625 -0.328125 0.21875q-0.1875 0.0625 -0.421875 0.0625q-0.234375 0 -0.421875 -0.0625q-0.1875 -0.0625 -0.328125 -0.203125q-0.140625 -0.140625 -0.234375 -0.359375q-0.09375 -0.21875 -0.125 -0.5l2.21875 -1.6875q0 0.109375 0 0.28125q0 0.15625 0 0.21875l0 0.796875zm5.5195312 -0.140625l0 -1.34375q0 -0.53125 -0.125 -0.953125q-0.125 -0.421875 -0.359375 -0.71875q-0.234375 -0.28125 -0.578125 -0.421875q-0.34375 -0.15625 -0.78125 -0.15625q-0.4375 0 -0.78125 0.15625q-0.328125 0.140625 -0.5625 0.421875q-0.25 0.296875 -0.375 0.71875q-0.125 0.421875 -0.125 0.953125l0 1.34375q0 0.53125 0.125 0.953125q0.125 0.421875 0.375 0.703125q0.234375 0.296875 0.578125 0.453125q0.34375 0.140625 0.78125 0.140625q0.4375 0 0.765625 -0.140625q0.34375 -0.15625 0.578125 -0.453125q0.234375 -0.28125 0.359375 -0.703125q0.125 -0.421875 0.125 -0.953125zm-2.953125 -0.15625q0 -0.09375 0 -0.1875q0 -0.109375 0 -0.203125l0 -0.953125q0 -0.390625 0.078125 -0.6875q0.078125 -0.3125 0.25 -0.5q0.125 -0.15625 0.328125 -0.234375q0.203125 -0.078125 0.453125 -0.078125q0.25 0 0.4375 0.078125q0.203125 0.0625 0.34375 0.21875q0.125 0.140625 0.203125 0.359375q0.09375 0.21875 0.125 0.5l-2.21875 1.6875zm2.234375 0.296875q0 0.421875 -0.09375 0.734375q-0.078125 0.3125 -0.265625 0.5q-0.125 0.140625 -0.328125 0.21875q-0.1875 0.0625 -0.421875 0.0625q-0.234375 0 -0.421875 -0.0625q-0.1875 -0.0625 -0.328125 -0.203125q-0.140625 -0.140625 -0.234375 -0.359375q-0.09375 -0.21875 -0.125 -0.5l2.21875 -1.6875q0 0.109375 0 0.28125q0 0.15625 0 0.21875l0 0.796875zm5.5195312 -0.140625l0 -1.34375q0 -0.53125 -0.125 -0.953125q-0.125 -0.421875 -0.359375 -0.71875q-0.234375 -0.28125 -0.578125 -0.421875q-0.34375 -0.15625 -0.78125 -0.15625q-0.4375 0 -0.78125 0.15625q-0.328125 0.140625 -0.5625 0.421875q-0.25 0.296875 -0.375 0.71875q-0.125 0.421875 -0.125 0.953125l0 1.34375q0 0.53125 0.125 0.953125q0.125 0.421875 0.375 0.703125q0.234375 0.296875 0.578125 0.453125q0.34375 0.140625 0.78125 0.140625q0.4375 0 0.765625 -0.140625q0.34375 -0.15625 0.578125 -0.453125q0.234375 -0.28125 0.359375 -0.703125q0.125 -0.421875 0.125 -0.953125zm-2.953125 -0.15625q0 -0.09375 0 -0.1875q0 -0.109375 0 -0.203125l0 -0.953125q0 -0.390625 0.078125 -0.6875q0.078125 -0.3125 0.25 -0.5q0.125 -0.15625 0.328125 -0.234375q0.203125 -0.078125 0.453125 -0.078125q0.25 0 0.4375 0.078125q0.203125 0.0625 0.34375 0.21875q0.125 0.140625 0.203125 0.359375q0.09375 0.21875 0.125 0.5l-2.21875 1.6875zm2.234375 0.296875q0 0.421875 -0.09375 0.734375q-0.078125 0.3125 -0.265625 0.5q-0.125 0.140625 -0.328125 0.21875q-0.1875 0.0625 -0.421875 0.0625q-0.234375 0 -0.421875 -0.0625q-0.1875 -0.0625 -0.328125 -0.203125q-0.140625 -0.140625 -0.234375 -0.359375q-0.09375 -0.21875 -0.125 -0.5l2.21875 -1.6875q0 0.109375 0 0.28125q0 0.15625 0 0.21875l0 0.796875zm5.5195312 -0.140625l0 -1.34375q0 -0.53125 -0.125 -0.953125q-0.125 -0.421875 -0.359375 -0.71875q-0.234375 -0.28125 -0.578125 -0.421875q-0.34375 -0.15625 -0.78125 -0.15625q-0.4375 0 -0.78125 0.15625q-0.328125 0.140625 -0.5625 0.421875q-0.25 0.296875 -0.375 0.71875q-0.125 0.421875 -0.125 0.953125l0 1.34375q0 0.53125 0.125 0.953125q0.125 0.421875 0.375 0.703125q0.234375 0.296875 0.578125 0.453125q0.34375 0.140625 0.78125 0.140625q0.4375 0 0.765625 -0.140625q0.34375 -0.15625 0.578125 -0.453125q0.234375 -0.28125 0.359375 -0.703125q0.125 -0.421875 0.125 -0.953125zm-2.953125 -0.15625q0 -0.09375 0 -0.1875q0 -0.109375 0 -0.203125l0 -0.953125q0 -0.390625 0.078125 -0.6875q0.078125 -0.3125 0.25 -0.5q0.125 -0.15625 0.328125 -0.234375q0.203125 -0.078125 0.453125 -0.078125q0.25 0 0.4375 0.078125q0.203125 0.0625 0.34375 0.21875q0.125 0.140625 0.203125 0.359375q0.09375 0.21875 0.125 0.5l-2.21875 1.6875zm2.234375 0.296875q0 0.421875 -0.09375 0.734375q-0.078125 0.3125 -0.265625 0.5q-0.125 0.140625 -0.328125 0.21875q-0.1875 0.0625 -0.421875 0.0625q-0.234375 0 -0.421875 -0.0625q-0.1875 -0.0625 -0.328125 -0.203125q-0.140625 -0.140625 -0.234375 -0.359375q-0.09375 -0.21875 -0.125 -0.5l2.21875 -1.6875q0 0.109375 0 0.28125q0 0.15625 0 0.21875l0 0.796875zm5.5195312 -0.140625l0 -1.34375q0 -0.53125 -0.125 -0.953125q-0.125 -0.421875 -0.359375 -0.71875q-0.234375 -0.28125 -0.578125 -0.421875q-0.34375 -0.15625 -0.78125 -0.15625q-0.4375 0 -0.78125 0.15625q-0.328125 0.140625 -0.5625 0.421875q-0.25 0.296875 -0.375 0.71875q-0.125 0.421875 -0.125 0.953125l0 1.34375q0 0.53125 0.125 0.953125q0.125 0.421875 0.375 0.703125q0.234375 0.296875 0.578125 0.453125q0.34375 0.140625 0.78125 0.140625q0.4375 0 0.765625 -0.140625q0.34375 -0.15625 0.578125 -0.453125q0.234375 -0.28125 0.359375 -0.703125q0.125 -0.421875 0.125 -0.953125zm-2.953125 -0.15625q0 -0.09375 0 -0.1875q0 -0.109375 0 -0.203125l0 -0.953125q0 -0.390625 0.078125 -0.6875q0.078125 -0.3125 0.25 -0.5q0.125 -0.15625 0.328125 -0.234375q0.203125 -0.078125 0.453125 -0.078125q0.25 0 0.4375 0.078125q0.203125 0.0625 0.34375 0.21875q0.125 0.140625 0.203125 0.359375q0.09375 0.21875 0.125 0.5l-2.21875 1.6875zm2.234375 0.296875q0 0.421875 -0.09375 0.734375q-0.078125 0.3125 -0.265625 0.5q-0.125 0.140625 -0.328125 0.21875q-0.1875 0.0625 -0.421875 0.0625q-0.234375 0 -0.421875 -0.0625q-0.1875 -0.0625 -0.328125 -0.203125q-0.140625 -0.140625 -0.234375 -0.359375q-0.09375 -0.21875 -0.125 -0.5l2.21875 -1.6875q0 0.109375 0 0.28125q0 0.15625 0 0.21875l0 0.796875zm4.3007812 2.03125l0 -5.6875l-0.0625 0l-2.15625 0.828125l0 0.65625l1.484375 -0.5625l0 4.765625l0.734375 0zm6.0195312 -2.171875l0 -1.34375q0 -0.53125 -0.125 -0.953125q-0.125 -0.421875 -0.359375 -0.71875q-0.234375 -0.28125 -0.578125 -0.421875q-0.34375 -0.15625 -0.78125 -0.15625q-0.4375 0 -0.78125 0.15625q-0.328125 0.140625 -0.5625 0.421875q-0.25 0.296875 -0.375 0.71875q-0.125 0.421875 -0.125 0.953125l0 1.34375q0 0.53125 0.125 0.953125q0.125 0.421875 0.375 0.703125q0.234375 0.296875 0.578125 0.453125q0.34375 0.140625 0.78125 0.140625q0.4375 0 0.765625 -0.140625q0.34375 -0.15625 0.578125 -0.453125q0.234375 -0.28125 0.359375 -0.703125q0.125 -0.421875 0.125 -0.953125zm-2.953125 -0.15625q0 -0.09375 0 -0.1875q0 -0.109375 0 -0.203125l0 -0.953125q0 -0.390625 0.078125 -0.6875q0.078125 -0.3125 0.25 -0.5q0.125 -0.15625 0.328125 -0.234375q0.203125 -0.078125 0.453125 -0.078125q0.25 0 0.4375 0.078125q0.203125 0.0625 0.34375 0.21875q0.125 0.140625 0.203125 0.359375q0.09375 0.21875 0.125 0.5l-2.21875 1.6875zm2.234375 0.296875q0 0.421875 -0.09375 0.734375q-0.078125 0.3125 -0.265625 0.5q-0.125 0.140625 -0.328125 0.21875q-0.1875 0.0625 -0.421875 0.0625q-0.234375 0 -0.421875 -0.0625q-0.1875 -0.0625 -0.328125 -0.203125q-0.140625 -0.140625 -0.234375 -0.359375q-0.09375 -0.21875 -0.125 -0.5l2.21875 -1.6875q0 0.109375 0 0.28125q0 0.15625 0 0.21875l0 0.796875zm7.4609375 -0.28125l0 0.046875q0 0.546875 0.09375 1.046875q0.09375 0.484375 0.234375 0.90625q0.140625 0.421875 0.328125 0.765625q0.203125 0.359375 0.421875 0.625q0.203125 0.265625 0.421875 0.453125q0.21875 0.203125 0.421875 0.3125l0.140625 -0.453125q-0.15625 -0.125 -0.3125 -0.3125q-0.15625 -0.171875 -0.3125 -0.40625q-0.140625 -0.25 -0.28125 -0.5625q-0.125 -0.3125 -0.21875 -0.671875q-0.09375 -0.359375 -0.15625 -0.78125q-0.046875 -0.4375 -0.046875 -0.921875l0 -0.046875q0 -0.515625 0.046875 -0.953125q0.0625 -0.4375 0.171875 -0.8125q0.109375 -0.40625 0.265625 -0.75q0.171875 -0.34375 0.34375 -0.59375q0.125 -0.15625 0.25 -0.28125q0.125 -0.140625 0.25 -0.234375l-0.140625 -0.484375q-0.203125 0.109375 -0.421875 0.3125q-0.203125 0.1875 -0.421875 0.453125q-0.21875 0.265625 -0.40625 0.625q-0.1875 0.34375 -0.34375 0.75q-0.140625 0.421875 -0.234375 0.921875q-0.09375 0.484375 -0.09375 1.046875zm6.4414062 2.3125l0 -5.6875l-0.0625 0l-2.15625 0.828125l0 0.65625l1.484375 -0.5625l0 4.765625l0.734375 0zm5.0820312 -2.265625l0 -0.046875q0 -0.59375 -0.09375 -1.0625q-0.078125 -0.484375 -0.21875 -0.90625q-0.15625 -0.421875 -0.34375 -0.75q-0.1875 -0.34375 -0.40625 -0.625q-0.21875 -0.265625 -0.4375 -0.453125q-0.21875 -0.203125 -0.40625 -0.3125l-0.15625 0.4375q0.125 0.109375 0.265625 0.265625q0.140625 0.140625 0.265625 0.34375q0.171875 0.25 0.328125 0.59375q0.15625 0.34375 0.28125 0.78125q0.078125 0.296875 0.140625 0.734375q0.0625 0.421875 0.0625 0.953125l0 0.046875q0 0.46875 -0.046875 0.875q-0.046875 0.40625 -0.140625 0.765625q-0.09375 0.375 -0.234375 0.6875q-0.125 0.328125 -0.265625 0.578125q-0.15625 0.25 -0.328125 0.4375q-0.15625 0.203125 -0.328125 0.3125l0.15625 0.453125q0.1875 -0.109375 0.40625 -0.3125q0.21875 -0.1875 0.4375 -0.453125q0.203125 -0.265625 0.390625 -0.625q0.203125 -0.34375 0.359375 -0.765625q0.140625 -0.421875 0.21875 -0.90625q0.09375 -0.5 0.09375 -1.046875z" fill-rule="nonzero"/><path fill="#000000" fill-opacity="0.0" d="m20.5958 21.616798l84.661415 0l0 14.551182l-84.661415 0z" fill-rule="evenodd"/><path fill="#000000" d="m25.62705 32.82805q0 0.21875 0.140625 0.390625q0.140625 0.15625 0.421875 0.15625q0.28125 0 0.421875 -0.15625q0.15625 -0.15625 0.15625 -0.390625q0 -0.234375 -0.15625 -0.390625q-0.140625 -0.171875 -0.421875 -0.171875q-0.28125 0 -0.421875 0.171875q-0.140625 0.15625 -0.140625 0.390625zm1.515625 0q0 0.21875 0.140625 0.390625q0.140625 0.15625 0.421875 0.15625q0.28125 0 0.421875 -0.15625q0.15625 -0.15625 0.15625 -0.390625q0 -0.234375 -0.15625 -0.390625q-0.140625 -0.171875 -0.421875 -0.171875q-0.28125 0 -0.421875 0.171875q-0.140625 0.15625 -0.140625 0.390625zm1.46875 0q0 0.21875 0.140625 0.390625q0.140625 0.15625 0.421875 0.15625q0.28125 0 0.421875 -0.15625q0.15625 -0.15625 0.15625 -0.390625q0 -0.234375 -0.15625 -0.390625q-0.140625 -0.171875 -0.421875 -0.171875q-0.28125 0 -0.421875 0.171875q-0.140625 0.15625 -0.140625 0.390625zm5.035158 -1.703125l0 -1.34375q0 -0.53125 -0.125 -0.953125q-0.125 -0.421875 -0.359375 -0.71875q-0.234375 -0.28125 -0.578125 -0.421875q-0.34375 -0.15625 -0.7812519 -0.15625q-0.4375 0 -0.78125 0.15625q-0.328125 0.140625 -0.5625 0.421875q-0.25 0.296875 -0.375 0.71875q-0.125 0.421875 -0.125 0.953125l0 1.34375q0 0.53125 0.125 0.953125q0.125 0.421875 0.375 0.703125q0.234375 0.296875 0.578125 0.453125q0.34375 0.140625 0.78125 0.140625q0.4375019 0 0.7656269 -0.140625q0.34375 -0.15625 0.578125 -0.453125q0.234375 -0.28125 0.359375 -0.703125q0.125 -0.421875 0.125 -0.953125zm-2.953127 -0.15625q0 -0.09375 0 -0.1875q0 -0.109375 0 -0.203125l0 -0.953125q0 -0.390625 0.078125 -0.6875q0.078125 -0.3125 0.25 -0.5q0.125 -0.15625 0.328125 -0.234375q0.203125 -0.078125 0.453125 -0.078125q0.2500019 0 0.4375019 0.078125q0.203125 0.0625 0.34375 0.21875q0.125 0.140625 0.203125 0.359375q0.09375 0.21875 0.125 0.5l-2.218752 1.6875zm2.234377 0.296875q0 0.421875 -0.09375 0.734375q-0.078125 0.3125 -0.265625 0.5q-0.125 0.140625 -0.328125 0.21875q-0.1875 0.0625 -0.4218769 0.0625q-0.234375 0 -0.421875 -0.0625q-0.1875 -0.0625 -0.328125 -0.203125q-0.140625 -0.140625 -0.234375 -0.359375q-0.09375 -0.21875 -0.125 -0.5l2.218752 -1.6875q0 0.109375 0 0.28125q0 0.15625 0 0.21875l0 0.796875zm5.5195312 -0.140625l0 -1.34375q0 -0.53125 -0.125 -0.953125q-0.125 -0.421875 -0.359375 -0.71875q-0.234375 -0.28125 -0.578125 -0.421875q-0.34375 -0.15625 -0.78125 -0.15625q-0.4375 0 -0.78125 0.15625q-0.328125 0.140625 -0.5625 0.421875q-0.25 0.296875 -0.375 0.71875q-0.125 0.421875 -0.125 0.953125l0 1.34375q0 0.53125 0.125 0.953125q0.125 0.421875 0.375 0.703125q0.234375 0.296875 0.578125 0.453125q0.34375 0.140625 0.78125 0.140625q0.4375 0 0.765625 -0.140625q0.34375 -0.15625 0.578125 -0.453125q0.234375 -0.28125 0.359375 -0.703125q0.125 -0.421875 0.125 -0.953125zm-2.953125 -0.15625q0 -0.09375 0 -0.1875q0 -0.109375 0 -0.203125l0 -0.953125q0 -0.390625 0.078125 -0.6875q0.078125 -0.3125 0.25 -0.5q0.125 -0.15625 0.328125 -0.234375q0.203125 -0.078125 0.453125 -0.078125q0.25 0 0.4375 0.078125q0.203125 0.0625 0.34375 0.21875q0.125 0.140625 0.203125 0.359375q0.09375 0.21875 0.125 0.5l-2.21875 1.6875zm2.234375 0.296875q0 0.421875 -0.09375 0.734375q-0.078125 0.3125 -0.265625 0.5q-0.125 0.140625 -0.328125 0.21875q-0.1875 0.0625 -0.421875 0.0625q-0.234375 0 -0.421875 -0.0625q-0.1875 -0.0625 -0.328125 -0.203125q-0.140625 -0.140625 -0.234375 -0.359375q-0.09375 -0.21875 -0.125 -0.5l2.21875 -1.6875q0 0.109375 0 0.28125q0 0.15625 0 0.21875l0 0.796875zm5.5195312 -0.140625l0 -1.34375q0 -0.53125 -0.125 -0.953125q-0.125 -0.421875 -0.359375 -0.71875q-0.234375 -0.28125 -0.578125 -0.421875q-0.34375 -0.15625 -0.78125 -0.15625q-0.4375 0 -0.78125 0.15625q-0.328125 0.140625 -0.5625 0.421875q-0.25 0.296875 -0.375 0.71875q-0.125 0.421875 -0.125 0.953125l0 1.34375q0 0.53125 0.125 0.953125q0.125 0.421875 0.375 0.703125q0.234375 0.296875 0.578125 0.453125q0.34375 0.140625 0.78125 0.140625q0.4375 0 0.765625 -0.140625q0.34375 -0.15625 0.578125 -0.453125q0.234375 -0.28125 0.359375 -0.703125q0.125 -0.421875 0.125 -0.953125zm-2.953125 -0.15625q0 -0.09375 0 -0.1875q0 -0.109375 0 -0.203125l0 -0.953125q0 -0.390625 0.078125 -0.6875q0.078125 -0.3125 0.25 -0.5q0.125 -0.15625 0.328125 -0.234375q0.203125 -0.078125 0.453125 -0.078125q0.25 0 0.4375 0.078125q0.203125 0.0625 0.34375 0.21875q0.125 0.140625 0.203125 0.359375q0.09375 0.21875 0.125 0.5l-2.21875 1.6875zm2.234375 0.296875q0 0.421875 -0.09375 0.734375q-0.078125 0.3125 -0.265625 0.5q-0.125 0.140625 -0.328125 0.21875q-0.1875 0.0625 -0.421875 0.0625q-0.234375 0 -0.421875 -0.0625q-0.1875 -0.0625 -0.328125 -0.203125q-0.140625 -0.140625 -0.234375 -0.359375q-0.09375 -0.21875 -0.125 -0.5l2.21875 -1.6875q0 0.109375 0 0.28125q0 0.15625 0 0.21875l0 0.796875zm5.5195312 -0.140625l0 -1.34375q0 -0.53125 -0.125 -0.953125q-0.125 -0.421875 -0.359375 -0.71875q-0.234375 -0.28125 -0.578125 -0.421875q-0.34375 -0.15625 -0.78125 -0.15625q-0.4375 0 -0.78125 0.15625q-0.328125 0.140625 -0.5625 0.421875q-0.25 0.296875 -0.375 0.71875q-0.125 0.421875 -0.125 0.953125l0 1.34375q0 0.53125 0.125 0.953125q0.125 0.421875 0.375 0.703125q0.234375 0.296875 0.578125 0.453125q0.34375 0.140625 0.78125 0.140625q0.4375 0 0.765625 -0.140625q0.34375 -0.15625 0.578125 -0.453125q0.234375 -0.28125 0.359375 -0.703125q0.125 -0.421875 0.125 -0.953125zm-2.953125 -0.15625q0 -0.09375 0 -0.1875q0 -0.109375 0 -0.203125l0 -0.953125q0 -0.390625 0.078125 -0.6875q0.078125 -0.3125 0.25 -0.5q0.125 -0.15625 0.328125 -0.234375q0.203125 -0.078125 0.453125 -0.078125q0.25 0 0.4375 0.078125q0.203125 0.0625 0.34375 0.21875q0.125 0.140625 0.203125 0.359375q0.09375 0.21875 0.125 0.5l-2.21875 1.6875zm2.234375 0.296875q0 0.421875 -0.09375 0.734375q-0.078125 0.3125 -0.265625 0.5q-0.125 0.140625 -0.328125 0.21875q-0.1875 0.0625 -0.421875 0.0625q-0.234375 0 -0.421875 -0.0625q-0.1875 -0.0625 -0.328125 -0.203125q-0.140625 -0.140625 -0.234375 -0.359375q-0.09375 -0.21875 -0.125 -0.5l2.21875 -1.6875q0 0.109375 0 0.28125q0 0.15625 0 0.21875l0 0.796875zm5.5195312 -0.140625l0 -1.34375q0 -0.53125 -0.125 -0.953125q-0.125 -0.421875 -0.359375 -0.71875q-0.234375 -0.28125 -0.578125 -0.421875q-0.34375 -0.15625 -0.78125 -0.15625q-0.4375 0 -0.78125 0.15625q-0.328125 0.140625 -0.5625 0.421875q-0.25 0.296875 -0.375 0.71875q-0.125 0.421875 -0.125 0.953125l0 1.34375q0 0.53125 0.125 0.953125q0.125 0.421875 0.375 0.703125q0.234375 0.296875 0.578125 0.453125q0.34375 0.140625 0.78125 0.140625q0.4375 0 0.765625 -0.140625q0.34375 -0.15625 0.578125 -0.453125q0.234375 -0.28125 0.359375 -0.703125q0.125 -0.421875 0.125 -0.953125zm-2.953125 -0.15625q0 -0.09375 0 -0.1875q0 -0.109375 0 -0.203125l0 -0.953125q0 -0.390625 0.078125 -0.6875q0.078125 -0.3125 0.25 -0.5q0.125 -0.15625 0.328125 -0.234375q0.203125 -0.078125 0.453125 -0.078125q0.25 0 0.4375 0.078125q0.203125 0.0625 0.34375 0.21875q0.125 0.140625 0.203125 0.359375q0.09375 0.21875 0.125 0.5l-2.21875 1.6875zm2.234375 0.296875q0 0.421875 -0.09375 0.734375q-0.078125 0.3125 -0.265625 0.5q-0.125 0.140625 -0.328125 0.21875q-0.1875 0.0625 -0.421875 0.0625q-0.234375 0 -0.421875 -0.0625q-0.1875 -0.0625 -0.328125 -0.203125q-0.140625 -0.140625 -0.234375 -0.359375q-0.09375 -0.21875 -0.125 -0.5l2.21875 -1.6875q0 0.109375 0 0.28125q0 0.15625 0 0.21875l0 0.796875zm5.5195312 -0.140625l0 -1.34375q0 -0.53125 -0.125 -0.953125q-0.125 -0.421875 -0.359375 -0.71875q-0.234375 -0.28125 -0.578125 -0.421875q-0.34375 -0.15625 -0.78125 -0.15625q-0.4375 0 -0.78125 0.15625q-0.328125 0.140625 -0.5625 0.421875q-0.25 0.296875 -0.375 0.71875q-0.125 0.421875 -0.125 0.953125l0 1.34375q0 0.53125 0.125 0.953125q0.125 0.421875 0.375 0.703125q0.234375 0.296875 0.578125 0.453125q0.34375 0.140625 0.78125 0.140625q0.4375 0 0.765625 -0.140625q0.34375 -0.15625 0.578125 -0.453125q0.234375 -0.28125 0.359375 -0.703125q0.125 -0.421875 0.125 -0.953125zm-2.953125 -0.15625q0 -0.09375 0 -0.1875q0 -0.109375 0 -0.203125l0 -0.953125q0 -0.390625 0.078125 -0.6875q0.078125 -0.3125 0.25 -0.5q0.125 -0.15625 0.328125 -0.234375q0.203125 -0.078125 0.453125 -0.078125q0.25 0 0.4375 0.078125q0.203125 0.0625 0.34375 0.21875q0.125 0.140625 0.203125 0.359375q0.09375 0.21875 0.125 0.5l-2.21875 1.6875zm2.234375 0.296875q0 0.421875 -0.09375 0.734375q-0.078125 0.3125 -0.265625 0.5q-0.125 0.140625 -0.328125 0.21875q-0.1875 0.0625 -0.421875 0.0625q-0.234375 0 -0.421875 -0.0625q-0.1875 -0.0625 -0.328125 -0.203125q-0.140625 -0.140625 -0.234375 -0.359375q-0.09375 -0.21875 -0.125 -0.5l2.21875 -1.6875q0 0.109375 0 0.28125q0 0.15625 0 0.21875l0 0.796875zm5.5195312 -0.140625l0 -1.34375q0 -0.53125 -0.125 -0.953125q-0.125 -0.421875 -0.359375 -0.71875q-0.234375 -0.28125 -0.578125 -0.421875q-0.34375 -0.15625 -0.78125 -0.15625q-0.4375 0 -0.78125 0.15625q-0.328125 0.140625 -0.5625 0.421875q-0.25 0.296875 -0.375 0.71875q-0.125 0.421875 -0.125 0.953125l0 1.34375q0 0.53125 0.125 0.953125q0.125 0.421875 0.375 0.703125q0.234375 0.296875 0.578125 0.453125q0.34375 0.140625 0.78125 0.140625q0.4375 0 0.765625 -0.140625q0.34375 -0.15625 0.578125 -0.453125q0.234375 -0.28125 0.359375 -0.703125q0.125 -0.421875 0.125 -0.953125zm-2.953125 -0.15625q0 -0.09375 0 -0.1875q0 -0.109375 0 -0.203125l0 -0.953125q0 -0.390625 0.078125 -0.6875q0.078125 -0.3125 0.25 -0.5q0.125 -0.15625 0.328125 -0.234375q0.203125 -0.078125 0.453125 -0.078125q0.25 0 0.4375 0.078125q0.203125 0.0625 0.34375 0.21875q0.125 0.140625 0.203125 0.359375q0.09375 0.21875 0.125 0.5l-2.21875 1.6875zm2.234375 0.296875q0 0.421875 -0.09375 0.734375q-0.078125 0.3125 -0.265625 0.5q-0.125 0.140625 -0.328125 0.21875q-0.1875 0.0625 -0.421875 0.0625q-0.234375 0 -0.421875 -0.0625q-0.1875 -0.0625 -0.328125 -0.203125q-0.140625 -0.140625 -0.234375 -0.359375q-0.09375 -0.21875 -0.125 -0.5l2.21875 -1.6875q0 0.109375 0 0.28125q0 0.15625 0 0.21875l0 0.796875zm5.5195312 -0.140625l0 -1.34375q0 -0.53125 -0.125 -0.953125q-0.125 -0.421875 -0.359375 -0.71875q-0.234375 -0.28125 -0.578125 -0.421875q-0.34375 -0.15625 -0.78125 -0.15625q-0.4375 0 -0.78125 0.15625q-0.328125 0.140625 -0.5625 0.421875q-0.25 0.296875 -0.375 0.71875q-0.125 0.421875 -0.125 0.953125l0 1.34375q0 0.53125 0.125 0.953125q0.125 0.421875 0.375 0.703125q0.234375 0.296875 0.578125 0.453125q0.34375 0.140625 0.78125 0.140625q0.4375 0 0.765625 -0.140625q0.34375 -0.15625 0.578125 -0.453125q0.234375 -0.28125 0.359375 -0.703125q0.125 -0.421875 0.125 -0.953125zm-2.953125 -0.15625q0 -0.09375 0 -0.1875q0 -0.109375 0 -0.203125l0 -0.953125q0 -0.390625 0.078125 -0.6875q0.078125 -0.3125 0.25 -0.5q0.125 -0.15625 0.328125 -0.234375q0.203125 -0.078125 0.453125 -0.078125q0.25 0 0.4375 0.078125q0.203125 0.0625 0.34375 0.21875q0.125 0.140625 0.203125 0.359375q0.09375 0.21875 0.125 0.5l-2.21875 1.6875zm2.234375 0.296875q0 0.421875 -0.09375 0.734375q-0.078125 0.3125 -0.265625 0.5q-0.125 0.140625 -0.328125 0.21875q-0.1875 0.0625 -0.421875 0.0625q-0.234375 0 -0.421875 -0.0625q-0.1875 -0.0625 -0.328125 -0.203125q-0.140625 -0.140625 -0.234375 -0.359375q-0.09375 -0.21875 -0.125 -0.5l2.21875 -1.6875q0 0.109375 0 0.28125q0 0.15625 0 0.21875l0 0.796875zm7.4609375 -0.28125l0 0.046875q0 0.546875 0.09375 1.046875q0.09375 0.484375 0.234375 0.90625q0.140625 0.421875 0.328125 0.765625q0.203125 0.359375 0.421875 0.625q0.203125 0.265625 0.421875 0.453125q0.21875 0.203125 0.421875 0.3125l0.140625 -0.453125q-0.15625 -0.125 -0.3125 -0.3125q-0.15625 -0.171875 -0.3125 -0.40625q-0.140625 -0.25 -0.28125 -0.5625q-0.125 -0.3125 -0.21875 -0.671875q-0.09375 -0.359375 -0.15625 -0.78125q-0.046875 -0.4375 -0.046875 -0.921875l0 -0.046875q0 -0.515625 0.046875 -0.953125q0.0625 -0.4375 0.171875 -0.8125q0.109375 -0.40625 0.265625 -0.75q0.171875 -0.34375 0.34375 -0.59375q0.125 -0.15625 0.25 -0.28125q0.125 -0.140625 0.25 -0.234375l-0.140625 -0.484375q-0.203125 0.109375 -0.421875 0.3125q-0.203125 0.1875 -0.421875 0.453125q-0.21875 0.265625 -0.40625 0.625q-0.1875 0.34375 -0.34375 0.75q-0.140625 0.421875 -0.234375 0.921875q-0.09375 0.484375 -0.09375 1.046875zm7.6601562 0.140625l0 -1.34375q0 -0.53125 -0.125 -0.953125q-0.125 -0.421875 -0.359375 -0.71875q-0.234375 -0.28125 -0.578125 -0.421875q-0.34375 -0.15625 -0.78125 -0.15625q-0.4375 0 -0.78125 0.15625q-0.328125 0.140625 -0.5625 0.421875q-0.25 0.296875 -0.375 0.71875q-0.125 0.421875 -0.125 0.953125l0 1.34375q0 0.53125 0.125 0.953125q0.125 0.421875 0.375 0.703125q0.234375 0.296875 0.578125 0.453125q0.34375 0.140625 0.78125 0.140625q0.4375 0 0.765625 -0.140625q0.34375 -0.15625 0.578125 -0.453125q0.234375 -0.28125 0.359375 -0.703125q0.125 -0.421875 0.125 -0.953125zm-2.953125 -0.15625q0 -0.09375 0 -0.1875q0 -0.109375 0 -0.203125l0 -0.953125q0 -0.390625 0.078125 -0.6875q0.078125 -0.3125 0.25 -0.5q0.125 -0.15625 0.328125 -0.234375q0.203125 -0.078125 0.453125 -0.078125q0.25 0 0.4375 0.078125q0.203125 0.0625 0.34375 0.21875q0.125 0.140625 0.203125 0.359375q0.09375 0.21875 0.125 0.5l-2.21875 1.6875zm2.234375 0.296875q0 0.421875 -0.09375 0.734375q-0.078125 0.3125 -0.265625 0.5q-0.125 0.140625 -0.328125 0.21875q-0.1875 0.0625 -0.421875 0.0625q-0.234375 0 -0.421875 -0.0625q-0.1875 -0.0625 -0.328125 -0.203125q-0.140625 -0.140625 -0.234375 -0.359375q-0.09375 -0.21875 -0.125 -0.5l2.21875 -1.6875q0 0.109375 0 0.28125q0 0.15625 0 0.21875l0 0.796875zm4.5820312 -0.234375l0 -0.046875q0 -0.59375 -0.09375 -1.0625q-0.078125 -0.484375 -0.21875 -0.90625q-0.15625 -0.421875 -0.34375 -0.75q-0.1875 -0.34375 -0.40625 -0.625q-0.21875 -0.265625 -0.4375 -0.453125q-0.21875 -0.203125 -0.40625 -0.3125l-0.15625 0.4375q0.125 0.109375 0.265625 0.265625q0.140625 0.140625 0.265625 0.34375q0.171875 0.25 0.328125 0.59375q0.15625 0.34375 0.28125 0.78125q0.078125 0.296875 0.140625 0.734375q0.0625 0.421875 0.0625 0.953125l0 0.046875q0 0.46875 -0.046875 0.875q-0.046875 0.40625 -0.140625 0.765625q-0.09375 0.375 -0.234375 0.6875q-0.125 0.328125 -0.265625 0.578125q-0.15625 0.25 -0.328125 0.4375q-0.15625 0.203125 -0.328125 0.3125l0.15625 0.453125q0.1875 -0.109375 0.40625 -0.3125q0.21875 -0.1875 0.4375 -0.453125q0.203125 -0.265625 0.390625 -0.625q0.203125 -0.34375 0.359375 -0.765625q0.140625 -0.421875 0.21875 -0.90625q0.09375 -0.5 0.09375 -1.046875z" fill-rule="nonzero"/></g></svg>